<svg width="279" height="224" viewBox="0 0 279 224" fill="none" xmlns="http://www.w3.org/2000/svg">
<g clip-path="url(#clip0)">
<path opacity="0.1" d="M171.827 25.1458C159.855 34.0122 144.327 33.4383 130.719 28.8255C117.111 24.2126 104.613 15.9995 91.3525 10.1619C80.3033 5.28662 68.6617 2.07619 56.7686 0.624599C39.872 -1.42012 21.002 1.0706 9.22844 15.4041C-3.88211 31.3652 -2.87549 60.1547 11.3055 74.8083C18.5183 82.2614 27.9632 85.9188 36.2 91.7384C44.4369 97.5579 52.0614 107.22 51.3599 118.452C50.7105 128.851 43.1606 136.829 35.3478 141.835C29.3089 145.705 21.871 149.93 21.1432 157.944C20.4389 165.698 26.6922 171.774 32.6639 175.229C52.1451 186.502 76.1471 186.393 95.5534 174.945C102.478 170.86 108.842 165.429 116.103 162.245C135.167 153.887 156.174 162.301 176.361 165.378C193.514 167.976 210.996 166.63 227.613 161.432C237.61 158.308 247.645 153.533 254.668 144.638C259.732 138.223 262.887 130.106 265.849 122.089C269.008 113.54 272.044 104.931 274.957 96.2611C276.707 91.0569 278.428 85.7516 278.879 80.1841C279.698 70.0933 276.25 60.1204 271.554 51.6043C260.405 31.3868 241.629 17.1705 221.305 13.559C200.982 9.94756 179.447 17.0009 163.676 32.4348" fill="white"/>
<path d="M235.066 147.314L234.344 146.872C235.019 145.639 233.209 140.388 231.714 137.743C230.677 135.909 230.027 134.241 229.726 132.644C229.246 130.102 229.702 127.898 231.08 126.094C233.939 122.35 233.915 115.203 233.914 115.131L234.748 115.123C234.75 115.429 234.777 122.656 231.728 126.648C229.702 129.301 229.938 132.882 232.43 137.291C233.604 139.369 236.112 145.401 235.066 147.314Z" fill="#D4D5E0"/>
<path d="M244.196 107.526C244.386 100.366 239.934 94.4249 234.253 94.2571C228.572 94.0892 223.814 99.7578 223.624 106.918C223.441 113.871 227.632 119.673 233.076 120.158C232.979 120.883 232.686 121.562 232.233 122.115C231.407 123.007 234.828 122.192 234.828 122.192C234.603 121.542 234.478 120.857 234.459 120.165C239.738 119.751 244.017 114.309 244.196 107.526Z" fill="#FF8863"/>
<path opacity="0.2" d="M226.62 112.307C225.779 109.582 226.554 106.846 228.352 106.024C228.268 106.044 228.186 106.068 228.104 106.096C226.137 106.776 225.254 109.632 226.132 112.475C226.984 115.236 229.183 116.97 231.111 116.447C231.15 116.663 227.471 115.063 226.62 112.307Z" fill="white"/>
<path d="M239.336 157.235L240.169 157.272C240.226 155.848 244.418 152.445 247.02 151.062C248.826 150.103 250.221 149.065 251.285 147.888C252.98 146.016 253.714 143.898 253.466 141.592C252.953 136.81 256.6 130.794 256.637 130.733L255.938 130.254C255.781 130.51 252.091 136.593 252.638 141.692C253.002 145.081 250.986 147.968 246.646 150.274C244.601 151.361 239.424 155.026 239.336 157.235Z" fill="#D4D5E0"/>
<path d="M251.82 118.48C255.293 112.33 262.064 109.845 266.942 112.928C271.821 116.011 272.96 123.496 269.486 129.645C266.114 135.616 259.633 138.132 254.794 135.451C254.508 136.118 254.41 136.857 254.512 137.581C254.756 138.802 252.283 136.173 252.283 136.173C252.803 135.752 253.256 135.245 253.623 134.671C249.378 131.326 248.53 124.304 251.82 118.48Z" fill="#FF8863"/>
<path opacity="0.2" d="M264.225 132.491C266.317 130.669 267.051 127.921 265.951 126.207C266.011 126.271 266.069 126.338 266.124 126.409C267.439 128.099 266.735 131.01 264.551 132.91C262.431 134.756 259.696 134.971 258.335 133.435C258.193 133.595 262.108 134.334 264.225 132.491Z" fill="white"/>
<path d="M91.2935 192.771L90.4607 192.808C90.4039 191.384 86.2119 187.981 83.6092 186.598C81.8035 185.639 80.4085 184.601 79.3443 183.425C77.6498 181.552 76.916 179.434 77.1634 177.129C77.6765 172.346 74.0294 166.33 73.9925 166.27L74.6917 165.79C74.8491 166.046 78.5386 172.129 77.9915 177.228C77.6279 180.617 79.6439 183.505 83.9834 185.81C86.0283 186.897 91.2054 190.563 91.2935 192.771Z" fill="#D4D5E0"/>
<path d="M78.8098 154.016C75.3363 147.866 68.5656 145.381 63.6871 148.464C58.8085 151.547 57.6696 159.032 61.1431 165.181C64.5157 171.152 70.9964 173.668 75.8357 170.987C76.1215 171.654 76.2193 172.393 76.1173 173.117C75.8733 174.338 78.3464 171.709 78.3464 171.709C77.8263 171.288 77.3738 170.781 77.0066 170.207C81.2512 166.862 82.0999 159.84 78.8098 154.016Z" fill="#FF8863"/>
<path opacity="0.2" d="M66.4048 168.027C64.3123 166.206 63.5787 163.457 64.6782 161.743C64.6182 161.807 64.5605 161.874 64.5056 161.945C63.1907 163.635 63.8949 166.546 66.0784 168.447C68.1985 170.292 70.9335 170.507 72.2943 168.971C72.4371 169.132 68.5213 169.87 66.4048 168.027Z" fill="white"/>
<path d="M118.731 100.229L117.898 100.266C117.841 98.8424 113.649 95.4392 111.047 94.0563C109.241 93.097 107.846 92.0589 106.782 90.8829C105.087 89.0104 104.353 86.892 104.601 84.5868C105.114 79.8044 101.467 73.788 101.43 73.7279L102.129 73.248C102.286 73.5045 105.976 79.5876 105.429 84.6863C105.065 88.0754 107.081 90.9628 111.421 93.2686C113.466 94.355 118.643 98.0209 118.731 100.229Z" fill="#D4D5E0"/>
<path d="M106.247 61.474C102.774 55.3248 96.003 52.8393 91.1244 55.9226C86.2459 59.0058 85.1069 66.4902 88.5805 72.6394C91.9531 78.6099 98.4338 81.1261 103.273 78.4451C103.559 79.1119 103.657 79.8517 103.555 80.5758C103.311 81.7965 105.784 79.167 105.784 79.167C105.264 78.7462 104.811 78.2393 104.444 77.6658C108.689 74.3202 109.537 67.2985 106.247 61.474Z" fill="#FF8863"/>
<path opacity="0.2" d="M93.8422 75.4855C91.7497 73.6639 91.0161 70.915 92.1156 69.2017C92.0556 69.2657 91.9979 69.3327 91.943 69.4032C90.6281 71.0931 91.3323 74.004 93.5158 75.9049C95.6359 77.7506 98.3709 77.9653 99.7317 76.4294C99.8745 76.5898 95.9587 77.3281 93.8422 75.4855Z" fill="white"/>
<path d="M109.154 139.381L108.321 139.419C108.264 137.995 104.072 134.592 101.47 133.209C99.6638 132.249 98.2688 131.211 97.2045 130.035C95.51 128.163 94.7762 126.044 95.0236 123.739C95.5368 118.957 91.8896 112.94 91.8527 112.88L92.552 112.4C92.7093 112.657 96.3989 118.74 95.8518 123.839C95.4881 127.228 97.5041 130.115 101.844 132.421C103.889 133.507 109.066 137.173 109.154 139.381Z" fill="#D4D5E0"/>
<path d="M96.67 100.626C93.1965 94.477 86.4258 91.9915 81.5472 95.0748C76.6687 98.158 75.5297 105.642 79.0033 111.792C82.3759 117.762 88.8566 120.278 93.6959 117.597C93.9817 118.264 94.0795 119.004 93.9775 119.728C93.7335 120.949 96.2066 118.319 96.2066 118.319C95.6865 117.898 95.234 117.391 94.8668 116.818C99.1113 113.472 99.9601 106.451 96.67 100.626Z" fill="#FF8863"/>
<path opacity="0.2" d="M84.2649 114.638C82.1725 112.816 81.4389 110.067 82.5384 108.354C82.4784 108.418 82.4207 108.485 82.3658 108.555C81.0509 110.245 81.755 113.156 83.9386 115.057C86.0587 116.903 88.7937 117.117 90.1545 115.582C90.2973 115.742 86.3815 116.48 84.2649 114.638Z" fill="white"/>
<path d="M224.063 191.196L223.534 190.514C224.575 189.61 224.625 184.021 224.104 180.99C223.742 178.887 223.687 177.083 223.936 175.477C224.331 172.919 225.489 171.025 227.379 169.847C231.3 167.405 233.651 160.704 233.674 160.637L234.457 160.939C234.358 161.226 231.982 168.003 227.802 170.607C225.024 172.338 224.055 175.778 224.924 180.832C225.333 183.214 225.678 189.793 224.063 191.196Z" fill="#D4D5E0"/>
<path d="M245.827 157.338C248.383 150.704 246.188 143.488 240.925 141.219C235.662 138.951 229.324 142.49 226.768 149.123C224.287 155.564 226.284 162.554 231.22 165.031C230.888 165.674 230.388 166.201 229.78 166.551C228.711 167.079 232.185 167.587 232.185 167.587C232.19 166.895 232.3 166.207 232.513 165.552C237.592 167.127 243.406 163.621 245.827 157.338Z" fill="#FF8863"/>
<path opacity="0.2" d="M227.783 155.282C227.901 152.418 229.536 150.145 231.491 150.043C231.407 150.031 231.321 150.023 231.235 150.019C229.168 149.924 227.393 152.27 227.27 155.258C227.151 158.16 228.634 160.6 230.612 160.826C230.577 161.044 227.664 158.178 227.783 155.282Z" fill="white"/>
<path opacity="0.1" d="M156.725 199.646C199.961 199.646 235.011 196.891 235.011 193.492C235.011 190.093 199.961 187.338 156.725 187.338C113.49 187.338 78.4399 190.093 78.4399 193.492C78.4399 196.891 113.49 199.646 156.725 199.646Z" fill="#FF8863"/>
<path d="M150.131 33.1746V42.8474H151.09V32.7067L150.131 33.1746Z" fill="#53425A"/>
<path d="M169.748 35.7487V44.7196H171.075L170.78 34.7346L169.748 35.7487Z" fill="#53425A"/>
<path d="M131.989 37.4648L131.104 38.479V47.2157H131.989V37.4648Z" fill="#53425A"/>
<path d="M135.677 63.2062H129.924V45.7344H134.349C134.303 45.8689 134.269 46.0075 134.247 46.1486C134.075 47.1525 134.128 49.0457 134.289 51.2151C134.674 56.415 135.677 63.2062 135.677 63.2062Z" fill="#FF8863"/>
<path d="M155.737 63.2061L148.509 64.1422V41.3652H153.082C153.051 41.6226 153.031 41.9152 153.02 42.2405C153.006 43.9591 153.102 45.6767 153.305 47.3818C153.46 48.8655 153.664 50.4592 153.887 52.0435C154.06 53.2721 154.245 54.4936 154.429 55.6567C155.093 59.8293 155.737 63.2061 155.737 63.2061Z" fill="#FF8863"/>
<path d="M175.206 60.866L168.126 61.4909V43.2374H172.993C172.821 43.6259 172.746 44.2811 172.743 45.1142C172.775 46.6201 172.902 48.122 173.124 49.6097C173.814 54.723 175.206 60.866 175.206 60.866Z" fill="#FF8863"/>
<path d="M133.169 19.7576C133.169 19.7576 133.612 21.6297 128.966 26.7781C124.32 31.9265 126.163 42.3013 131.104 41.9893C131.104 41.9893 135.724 42.7952 137.385 39.4689C137.731 38.7511 137.886 37.9476 137.834 37.1439C137.782 36.3402 137.525 35.5664 137.09 34.905C135.563 32.5266 132.618 27.5283 133.169 25.14V19.7576Z" fill="#FFC13D"/>
<path opacity="0.5" d="M132.235 26.8328C132.235 26.8328 132.511 28.0021 129.61 31.2178C126.708 34.4335 127.859 40.9136 130.945 40.7187C130.945 40.7187 133.895 41.2333 134.902 39.0743C135.1 38.6305 135.184 38.1392 135.146 37.65C135.107 37.1609 134.946 36.6913 134.681 36.2887C133.78 34.8843 132.094 32.0278 132.197 30.459C132.214 30.2138 132.235 29.969 132.235 29.7232V26.8328Z" fill="white"/>
<path d="M171.514 17.4095C171.514 17.4095 171.956 19.2817 167.31 24.4301C162.664 29.5785 164.508 39.9533 169.449 39.6413C169.449 39.6413 174.068 40.4472 175.73 37.1209C176.075 36.4031 176.23 35.5996 176.178 34.7959C176.126 33.9922 175.869 33.2184 175.435 32.557C173.908 30.1786 170.963 25.1803 171.514 22.792V17.4095Z" fill="#FFC13D"/>
<path opacity="0.5" d="M170.927 28.5684C170.927 28.5684 171.134 29.4446 168.96 31.8541C166.786 34.2636 167.648 39.1191 169.961 38.9731C169.961 38.9731 172.123 39.3503 172.9 37.7936C173.062 37.4576 173.135 37.0815 173.11 36.7054C173.086 36.3293 172.966 35.9671 172.762 35.6576C172.048 34.5445 170.669 32.2052 170.927 31.0874V28.5684Z" fill="white"/>
<path d="M151.95 10.6388C151.95 10.6388 152.489 12.9153 146.839 19.1758C141.189 25.4363 143.431 38.052 149.439 37.6726C149.439 37.6726 155.056 38.6526 157.077 34.6079C157.497 33.735 157.686 32.7579 157.623 31.7806C157.56 30.8033 157.247 29.8624 156.719 29.0581C154.862 26.166 151.281 20.088 151.95 17.1838V10.6388Z" fill="#FFC13D"/>
<path opacity="0.5" d="M151.358 21.9385C151.358 21.9385 151.658 23.2086 148.506 26.7015C145.354 30.1943 146.605 37.2329 149.957 37.0212C149.957 37.0212 153.091 37.568 154.218 35.3114C154.453 34.8244 154.558 34.2792 154.523 33.734C154.488 33.1887 154.313 32.6638 154.018 32.215C152.982 30.6014 150.984 27.2104 151.358 25.5901V21.9385Z" fill="white"/>
<path opacity="0.5" d="M134.289 51.215C132.938 52.7198 131.07 55.4133 129.924 57.1193V50.9459C131.188 49.3359 132.997 47.424 134.247 46.1486C134.075 47.1525 134.128 49.0457 134.289 51.215Z" fill="white"/>
<path opacity="0.5" d="M153.305 47.3818C151.616 48.8122 150.014 50.3535 148.509 51.9967V46.0948C149.871 44.6349 151.384 43.342 153.02 42.2405C153.006 43.9591 153.102 45.6767 153.305 47.3818Z" fill="white"/>
<path d="M154.429 55.6567C152.652 57.3042 150.208 59.6467 148.509 61.2801V57.0561C150.283 55.3291 152.453 53.3399 153.887 52.0435C154.06 53.2721 154.245 54.4936 154.429 55.6567Z" fill="#FF8863"/>
<path opacity="0.5" d="M173.124 49.6097C171.418 51.1215 169.44 53.1996 168.126 54.6294V48.7439C169.522 47.2743 171.374 45.9755 172.743 45.1143C172.775 46.6201 172.902 48.122 173.124 49.6097Z" fill="white"/>
<path d="M189.659 67.4185H117.462V102.367H189.659V67.4185Z" fill="#C99398"/>
<path opacity="0.1" d="M189.66 67.4185V72.6792C188.279 72.9623 186.469 72.5247 184.954 71.9888C184.059 71.669 183.107 71.5678 182.17 71.6926C181.233 71.8174 180.334 72.1651 179.542 72.7096C175.383 75.5857 172.135 74.9772 169.869 73.5474C168.748 72.8231 167.48 72.3897 166.169 72.2828C164.859 72.1758 163.543 72.3983 162.33 72.9319C161.27 73.393 160.132 73.6138 158.987 73.5802C157.648 73.5611 156.332 73.945 155.192 74.6871C151.776 76.8751 148.371 75.6091 146.232 74.2869C144.83 73.4324 143.172 73.1794 141.599 73.5802C140.926 73.752 140.232 73.812 139.542 73.758C137.962 73.6015 136.375 73.9635 134.997 74.7947C129.358 78.2792 127.495 74.0482 126.384 73.4257C125.13 72.7236 124.984 75.141 124.615 75.141C124.245 75.141 122.993 71.9444 122.696 73.0349C122.559 73.5474 121.398 74.1629 120.203 74.673C119.334 75.0439 118.384 75.1478 117.462 74.9726V67.4185H189.66Z" fill="black"/>
<path d="M120.338 60.451C120.338 60.451 108.506 66.0365 114.82 73.0156C115.503 73.7586 116.381 74.2688 117.34 74.4807C118.299 74.6925 119.296 74.5964 120.203 74.2046C121.397 73.6956 122.559 73.0801 122.697 72.5677C122.992 71.4756 124.246 74.6738 124.615 74.6738C124.983 74.6738 125.131 72.2556 126.384 72.9577C127.495 73.5796 129.358 77.8123 134.996 74.326C136.375 73.4955 137.963 73.1338 139.543 73.29C140.233 73.3446 140.926 73.2845 141.599 73.1118C143.172 72.7115 144.83 72.9643 146.232 73.8181C148.372 75.1405 151.777 76.4063 155.192 74.2201C156.332 73.4771 157.648 73.0927 158.987 73.1116C160.132 73.1462 161.271 72.9252 162.329 72.4629C163.543 71.93 164.859 71.7081 166.169 71.8151C167.48 71.9221 168.748 72.355 169.87 73.0786C172.135 74.5102 175.384 75.1177 179.542 72.2423C180.334 71.6972 181.232 71.349 182.169 71.2238C183.106 71.0986 184.058 71.1998 184.953 71.5197C187.977 72.5914 192.179 73.2746 191.798 68.5894C191.208 61.3348 183.096 59.2287 179.704 59.1507C176.311 59.0726 170.706 58.4486 164.364 59.1507C158.022 59.8527 145.116 59.7747 145.116 59.7747C145.116 59.7747 123.446 58.8646 120.338 60.451Z" fill="#F8F8FA"/>
<path d="M205.699 102.367H102.712V145.152H205.699V102.367Z" fill="#C99398"/>
<path opacity="0.1" d="M189.66 95.0677V102.367H149.511C149.442 102.357 149.374 102.35 149.305 102.346C148.965 102.319 148.624 102.326 148.285 102.367H117.462V95.8587C120.82 96.2917 124.207 96.8416 127.546 96.8276C131.977 96.8065 136.356 95.833 140.796 96.0951C156.321 97.0078 172.128 97.2792 187.591 95.3345C188.279 95.2479 188.969 95.1567 189.66 95.0677Z" fill="black"/>
<path opacity="0.1" d="M205.7 102.367V106.226C204.58 106.076 203.503 105.603 202.421 105.229C201.445 104.892 200.39 104.63 199.399 104.908C198.876 105.056 198.401 105.346 197.885 105.514C195.73 106.226 193.483 104.744 191.224 104.735C188.985 104.726 186.983 106.153 184.797 106.673C181.418 107.475 177.965 106.067 174.728 104.761C173.418 104.234 171.9 103.731 170.677 104.452C170.139 104.768 169.735 105.287 169.21 105.629C167.677 106.631 165.67 105.849 164.142 104.838C163.175 104.199 162.004 103.448 160.984 103.986C160.458 104.262 160.128 104.822 159.692 105.236C158.312 106.544 156.139 106.193 154.447 105.397C152.756 104.602 151.15 103.427 149.305 103.282C146.703 103.073 144.424 104.929 142.155 106.289C139.885 107.648 136.736 108.454 134.885 106.506C134.272 105.863 133.818 104.932 132.98 104.709C131.592 104.344 130.55 106.16 129.152 106.478C127.429 106.872 126.026 104.932 124.298 104.55C122.511 104.155 120.847 105.47 119.269 106.441C117.692 107.412 115.4 107.96 114.256 106.455C113.891 105.975 113.692 105.329 113.192 105.011C112.811 104.814 112.382 104.741 111.962 104.803C110.465 104.891 108.995 105.262 107.623 105.9C106.048 106.635 104.524 107.737 102.805 107.702C102.774 107.702 102.743 107.7 102.712 107.698V102.367H205.7Z" fill="black"/>
<path d="M127.545 97.2955C119.645 97.3308 111.486 94.1978 104.038 96.984C101.335 97.995 98.5945 100.387 98.8795 103.404C99.0052 104.428 99.4671 105.373 100.184 106.073C100.902 106.773 101.829 107.184 102.804 107.235C104.524 107.27 106.048 106.167 107.623 105.433C108.995 104.794 110.465 104.422 111.963 104.334C112.383 104.274 112.812 104.347 113.193 104.544C113.692 104.861 113.892 105.508 114.257 105.988C115.401 107.492 117.691 106.945 119.269 105.973C120.847 105.002 122.512 103.686 124.299 104.081C126.025 104.463 127.428 106.404 129.152 106.01C130.55 105.692 131.592 103.877 132.979 104.242C133.819 104.463 134.272 105.394 134.885 106.04C136.735 107.985 139.884 107.181 142.154 105.821C144.424 104.46 146.703 102.606 149.304 102.813C151.151 102.959 152.755 104.135 154.448 104.93C156.14 105.725 158.313 106.075 159.692 104.768C160.129 104.354 160.459 103.794 160.984 103.517C162.004 102.981 163.175 103.732 164.141 104.37C165.67 105.381 167.677 106.163 169.211 105.16C169.734 104.819 170.14 104.3 170.676 103.984C171.9 103.263 173.419 103.766 174.728 104.294C177.964 105.599 181.419 107.008 184.798 106.204C186.982 105.685 188.986 104.259 191.224 104.267C193.482 104.276 195.73 105.758 197.886 105.047C198.401 104.877 198.876 104.588 199.398 104.441C200.39 104.161 201.444 104.423 202.421 104.761C203.717 105.209 205.007 105.799 206.37 105.804C207.734 105.808 209.225 105.02 209.551 103.62C209.801 102.548 209.314 101.437 208.707 100.539C206.503 97.2784 202.682 95.6002 198.916 95.1541C195.149 94.708 191.354 95.3305 187.591 95.8035C172.128 97.7468 156.32 97.4763 140.796 96.5631C136.356 96.3019 131.977 97.2756 127.545 97.2955Z" fill="#F8F8FA"/>
<path d="M209.618 141.291H95.7425V190.903H209.618V141.291Z" fill="#C99398"/>
<path opacity="0.1" d="M210.122 139.931C204.426 141.231 198.657 142.138 192.85 142.646C190.901 142.286 188.897 142.448 187.022 143.116C186.987 143.128 186.952 143.14 186.916 143.154C183.328 144.497 180.239 147.682 176.434 147.63C173.396 147.588 170.77 145.466 167.852 144.577C167.017 144.322 166.157 144.173 165.29 144.134C164.7 144.102 164.109 144.119 163.522 144.186C159.993 144.284 156.464 144.324 152.936 144.247C147.759 144.137 142.593 143.774 137.427 143.413C131.904 143.027 126.382 142.641 120.86 142.255C115.665 141.892 110.47 141.53 105.274 141.167C103.999 141.078 102.723 140.988 101.446 140.898C100.072 140.802 99.0523 141.115 98.497 139.817C97.8377 138.263 98.4195 136.716 99.2271 135.363C99.9218 135.377 100.619 135.429 101.311 135.48C111.833 136.264 122.353 137.075 132.871 137.914L131.254 138.216C142.24 136.386 153.365 135.658 164.48 136.042C169.668 136.222 174.885 136.643 180.036 135.944C183.655 135.452 187.202 134.413 190.839 134.088C195.834 133.641 200.841 134.554 205.784 135.464C206.824 135.637 207.855 135.869 208.872 136.157C209.135 137.495 209.43 138.831 210.122 139.931Z" fill="black"/>
<path opacity="0.1" d="M209.618 141.291V145.955C208.197 145.733 206.806 145.513 205.943 146.58C205.538 147.083 205.381 147.766 204.987 148.281C204.175 149.341 202.589 149.339 201.429 148.737C200.272 148.136 199.39 147.083 198.392 146.217C196.804 144.868 194.919 143.965 192.912 143.593C190.906 143.221 188.843 143.392 186.916 144.09C183.328 145.433 180.239 148.618 176.434 148.567C173.396 148.524 170.77 146.402 167.852 145.513C166.2 145.022 164.467 144.925 162.776 145.229C161.085 145.533 159.478 146.23 158.073 147.27C156.006 148.822 154.055 151.23 151.54 150.923C150.221 150.762 149.113 149.854 147.993 149.098C145.74 147.583 143.209 146.59 140.566 146.187C139.413 146.013 138.19 145.962 137.128 146.467C135.789 147.106 134.924 148.517 133.681 149.346C130.794 151.267 127.05 149.533 124.075 147.771C121.097 146.009 117.413 144.205 114.464 146.016C113.769 146.442 113.174 147.05 112.44 147.392C108.291 149.318 104.218 141.897 99.9616 143.538C99.0014 143.907 98.2359 144.705 97.2912 145.117C96.8009 145.328 96.2688 145.407 95.7425 145.347V141.291H209.618Z" fill="black"/>
<path d="M132.872 138.381C122.354 137.544 111.834 136.733 101.311 135.949C99.4844 135.812 97.6106 135.682 95.8548 136.234C94.099 136.785 92.4584 138.172 92.0828 140.068C91.515 142.935 94.7311 145.763 97.2918 144.648C98.2369 144.237 99.0019 143.438 99.9622 143.068C104.218 141.43 108.292 148.849 112.439 146.923C113.174 146.581 113.768 145.975 114.463 145.548C117.413 143.736 121.097 145.542 124.074 147.304C127.05 149.066 130.794 150.798 133.681 148.877C134.925 148.05 135.789 146.639 137.128 146C138.19 145.494 139.412 145.545 140.566 145.72C143.209 146.122 145.741 147.114 147.994 148.631C149.113 149.385 150.221 150.293 151.54 150.454C154.056 150.762 156.007 148.353 158.072 146.802C159.478 145.762 161.084 145.065 162.775 144.761C164.466 144.457 166.2 144.554 167.852 145.044C170.769 145.933 173.396 148.056 176.433 148.098C180.239 148.151 183.327 144.965 186.915 143.621C188.843 142.924 190.906 142.753 192.912 143.125C194.919 143.497 196.804 144.4 198.392 145.749C199.39 146.615 200.271 147.667 201.43 148.269C202.589 148.871 204.175 148.874 204.988 147.813C205.381 147.299 205.537 146.614 205.943 146.112C207.604 144.058 211.222 146.772 213.235 145.108C213.702 144.695 214.026 144.131 214.157 143.503C214.662 141.374 213.398 139.131 211.667 137.922C209.935 136.713 207.826 136.309 205.782 135.933C200.842 135.022 195.835 134.108 190.838 134.555C187.201 134.881 183.655 135.921 180.035 136.412C174.886 137.111 169.669 136.691 164.48 136.511C153.364 136.126 142.239 136.854 131.253 138.684" fill="#F8F8FA"/>
<path opacity="0.1" d="M209.618 177.395V189.052C205.259 189.288 200.9 189.523 196.54 189.756C189.5 190.135 182.454 190.514 175.407 190.369C169.451 190.245 163.509 189.749 157.555 189.553C145.037 189.141 132.484 190.065 120.002 189.005C116.006 188.666 112.024 188.125 108.021 187.884C103.929 187.644 99.8264 187.707 95.7425 188.071V177.089C96.1185 177.056 96.496 177.047 96.8731 177.061C98.8477 177.129 100.788 177.626 102.574 178.519C103.97 179.218 105.294 180.168 106.816 180.447C110.776 181.17 114.216 177.213 118.225 176.897C121.453 176.644 124.353 178.762 127.123 180.534C127.657 180.873 128.249 181.215 128.862 181.119C129.376 181.039 129.798 180.667 130.216 180.342C134.168 177.257 140.188 177.632 143.767 181.186C144.157 181.57 144.544 182.003 145.057 182.146C146.073 182.431 146.984 181.5 147.79 180.784C152.152 176.892 158.876 178.062 163.883 180.964C164.81 181.5 165.836 182.111 166.861 181.83C167.546 181.643 168.075 181.086 168.624 180.611C172.887 176.911 179.299 177.599 184.288 180.087C184.77 180.328 185.279 180.587 185.808 180.524C186.443 180.445 186.929 179.927 187.418 179.494C188.613 178.468 190.057 177.818 191.584 177.618C193.112 177.418 194.662 177.676 196.058 178.362C196.845 178.762 197.575 179.303 198.412 179.574C200.794 180.344 203.215 178.778 205.593 177.985C206.895 177.555 208.255 177.355 209.618 177.395Z" fill="black"/>
<path d="M221.618 188.874C213.259 189.326 204.9 189.776 196.54 190.224C189.5 190.603 182.454 190.982 175.407 190.837C169.451 190.713 163.509 190.217 157.555 190.021C145.037 189.609 132.484 190.533 120.002 189.473C116.006 189.134 112.024 188.593 108.021 188.352C103.518 188.091 99.0017 188.192 94.5124 188.654C93.5522 188.75 92.0743 189.258 91.1451 189.059C90.1429 188.843 90.5256 188.722 90.8531 187.718C90.9509 187.419 91.0337 187.115 91.1009 186.807C91.3752 185.579 91.4261 184.339 91.5389 183.063C91.685 181.434 91.9106 179.642 93.185 178.535C94.1872 177.662 95.5744 177.484 96.8731 177.529C98.8477 177.597 100.788 178.094 102.574 178.987C103.97 179.686 105.293 180.636 106.816 180.915C110.776 181.638 114.216 177.681 118.225 177.365C121.453 177.112 124.353 179.23 127.123 181.002C127.657 181.341 128.249 181.683 128.862 181.587C129.376 181.507 129.798 181.135 130.216 180.81C134.168 177.725 140.188 178.1 143.767 181.654C144.157 182.038 144.544 182.471 145.057 182.614C146.073 182.899 146.984 181.968 147.79 181.252C152.152 177.36 158.876 178.53 163.883 181.432C164.81 181.968 165.836 182.579 166.861 182.298C167.546 182.111 168.075 181.554 168.624 181.079C172.887 177.379 179.299 178.067 184.288 180.555C184.77 180.796 185.279 181.055 185.808 180.992C186.443 180.913 186.929 180.395 187.418 179.962C188.613 178.937 190.057 178.286 191.584 178.086C193.112 177.886 194.662 178.144 196.058 178.83C196.845 179.23 197.575 179.771 198.412 180.042C200.795 180.812 203.215 179.246 205.593 178.453C208.701 177.415 212.069 177.709 214.974 179.272C217.878 180.834 220.087 183.54 221.124 186.808C221.344 187.48 221.509 188.172 221.618 188.874Z" fill="#F8F8FA"/>
<path opacity="0.1" d="M221.618 188.874C213.259 189.326 204.9 189.776 196.54 190.224C189.5 190.603 182.454 190.982 175.407 190.837C169.451 190.713 163.509 190.217 157.555 190.021C145.037 189.609 132.484 190.533 120.002 189.473C116.006 189.134 112.024 188.593 108.021 188.352C103.518 188.091 99.0017 188.192 94.5124 188.654C93.5522 188.75 92.0743 189.258 91.1451 189.059C90.1429 188.843 90.5256 188.722 90.8531 187.718C90.9509 187.419 91.0337 187.115 91.1009 186.807H221.124C221.344 187.48 221.509 188.172 221.618 188.874Z" fill="black"/>
<path d="M87.8727 187.042H223.083C224.252 187.042 225.374 187.533 226.2 188.407C227.027 189.282 227.492 190.468 227.492 191.705V192.307H83.4636V191.705C83.4636 190.468 83.9282 189.282 84.755 188.407C85.5819 187.533 86.7033 187.042 87.8727 187.042Z" fill="#D4D5E0"/>
<path d="M121.146 64.3976L121.057 64.3694C120.867 64.3091 120.667 64.4231 120.61 64.6241L120.172 66.1665C120.115 66.3675 120.223 66.5794 120.413 66.6397L120.501 66.6679C120.691 66.7283 120.892 66.6143 120.949 66.4133L121.387 64.8709C121.444 64.6698 121.336 64.458 121.146 64.3976Z" fill="#FF8863"/>
<path d="M109.352 98.7495L109.263 98.7213C109.073 98.661 108.873 98.775 108.816 98.976L108.378 100.518C108.321 100.719 108.429 100.931 108.619 100.992L108.707 101.02C108.897 101.08 109.098 100.966 109.155 100.765L109.593 99.2228C109.65 99.0218 109.542 98.8099 109.352 98.7495Z" fill="#FF8863"/>
<path d="M96.7205 138.527L96.6317 138.498C96.4417 138.438 96.2414 138.552 96.1843 138.753L95.7465 140.295C95.6894 140.496 95.7972 140.708 95.9872 140.769L96.076 140.797C96.266 140.857 96.4663 140.743 96.5234 140.542L96.9612 139C97.0183 138.799 96.9105 138.587 96.7205 138.527Z" fill="#FF8863"/>
<path d="M128.304 141.169L128.215 141.14C128.025 141.08 127.825 141.194 127.768 141.395L127.33 142.937C127.273 143.138 127.381 143.35 127.571 143.411L127.659 143.439C127.849 143.499 128.05 143.385 128.107 143.184L128.545 141.642C128.602 141.441 128.494 141.229 128.304 141.169Z" fill="#FF8863"/>
<path d="M147.056 139.68L146.968 139.652C146.778 139.591 146.577 139.705 146.52 139.906L146.082 141.449C146.025 141.65 146.133 141.862 146.323 141.922L146.412 141.95C146.602 142.011 146.802 141.896 146.859 141.695L147.297 140.153C147.354 139.952 147.246 139.74 147.056 139.68Z" fill="#FF8863"/>
<path d="M173.491 142.698L173.402 142.669C173.212 142.609 173.011 142.723 172.954 142.924L172.516 144.466C172.459 144.667 172.567 144.879 172.757 144.94L172.846 144.968C173.036 145.028 173.236 144.914 173.293 144.713L173.731 143.171C173.788 142.97 173.681 142.758 173.491 142.698Z" fill="#FF8863"/>
<path d="M191.57 138.288L191.481 138.26C191.291 138.199 191.09 138.313 191.033 138.514L190.596 140.057C190.538 140.258 190.646 140.469 190.836 140.53L190.925 140.558C191.115 140.618 191.315 140.504 191.372 140.303L191.81 138.761C191.867 138.56 191.76 138.348 191.57 138.288Z" fill="#FF8863"/>
<path d="M112.167 140.17L112.078 140.142C111.888 140.081 111.688 140.195 111.631 140.396L111.193 141.939C111.136 142.14 111.244 142.352 111.434 142.412L111.523 142.44C111.713 142.501 111.913 142.387 111.97 142.186L112.408 140.643C112.465 140.442 112.357 140.23 112.167 140.17Z" fill="#FF8863"/>
<path d="M150.498 144.177L150.409 144.149C150.219 144.088 150.019 144.202 149.962 144.404L149.524 145.946C149.467 146.147 149.574 146.359 149.764 146.419L149.853 146.447C150.043 146.508 150.244 146.394 150.301 146.193L150.738 144.65C150.795 144.449 150.688 144.237 150.498 144.177Z" fill="#FF8863"/>
<path d="M166.314 139.68L166.225 139.652C166.035 139.591 165.835 139.705 165.778 139.906L165.34 141.449C165.283 141.65 165.391 141.862 165.581 141.922L165.67 141.95C165.86 142.011 166.06 141.896 166.117 141.695L166.555 140.153C166.612 139.952 166.504 139.74 166.314 139.68Z" fill="#FF8863"/>
<path d="M199.718 138.288L199.63 138.26C199.44 138.199 199.239 138.313 199.182 138.514L198.744 140.057C198.687 140.258 198.795 140.469 198.985 140.53L199.074 140.558C199.264 140.618 199.464 140.504 199.521 140.303L199.959 138.761C200.016 138.56 199.908 138.348 199.718 138.288Z" fill="#FF8863"/>
<path d="M161.368 64.3042L161.313 64.3832C161.195 64.5523 161.23 64.7901 161.39 64.9144L162.616 65.8684C162.776 65.9927 163.001 65.9565 163.118 65.7874L163.173 65.7084C163.291 65.5393 163.257 65.3014 163.097 65.1771L161.87 64.2231C161.71 64.0988 161.485 64.1351 161.368 64.3042Z" fill="#FF8863"/>
<path d="M151.518 63.5256L151.464 63.6046C151.346 63.7737 151.38 64.0116 151.54 64.1359L152.767 65.0899C152.927 65.2142 153.152 65.1779 153.269 65.0088L153.324 64.9298C153.441 64.7607 153.407 64.5229 153.247 64.3985L152.021 63.4446C151.861 63.3202 151.636 63.3565 151.518 63.5256Z" fill="#FF8863"/>
<path d="M135.526 63.5257L135.471 63.6047C135.354 63.7738 135.388 64.0117 135.548 64.136L136.774 65.09C136.934 65.2143 137.159 65.178 137.277 65.0089L137.332 64.9299C137.449 64.7608 137.415 64.523 137.255 64.3987L136.028 63.4447C135.868 63.3204 135.644 63.3566 135.526 63.5257Z" fill="#FF8863"/>
<path d="M114.222 97.9756L114.167 98.0546C114.05 98.2236 114.084 98.4615 114.244 98.5858L115.47 99.5398C115.63 99.6642 115.855 99.6279 115.973 99.4588L116.027 99.3798C116.145 99.2107 116.111 98.9728 115.951 98.8485L114.724 97.8945C114.564 97.7702 114.34 97.8065 114.222 97.9756Z" fill="#FF8863"/>
<path d="M115.437 101.456L115.382 101.535C115.264 101.704 115.298 101.942 115.458 102.066L116.685 103.02C116.845 103.145 117.07 103.108 117.187 102.939L117.242 102.86C117.36 102.691 117.325 102.453 117.166 102.329L115.939 101.375C115.779 101.251 115.554 101.287 115.437 101.456Z" fill="#FF8863"/>
<path d="M141.726 98.252L141.671 98.3311C141.554 98.5001 141.588 98.738 141.748 98.8623L142.975 99.8163C143.135 99.9406 143.359 99.9043 143.477 99.7352L143.532 99.6562C143.649 99.4872 143.615 99.2493 143.455 99.125L142.229 98.171C142.069 98.0467 141.844 98.083 141.726 98.252Z" fill="#FF8863"/>
<path d="M131.298 143.546L131.243 143.625C131.126 143.794 131.16 144.032 131.32 144.156L132.547 145.11C132.706 145.234 132.931 145.198 133.049 145.029L133.104 144.95C133.221 144.781 133.187 144.543 133.027 144.419L131.8 143.465C131.641 143.34 131.416 143.377 131.298 143.546Z" fill="#FF8863"/>
<path d="M170.2 100.046L170.145 100.125C170.027 100.294 170.062 100.532 170.222 100.657L171.448 101.611C171.608 101.735 171.833 101.699 171.951 101.53L172.005 101.451C172.123 101.281 172.089 101.044 171.929 100.919L170.702 99.9653C170.542 99.841 170.317 99.8773 170.2 100.046Z" fill="#FF8863"/>
<path d="M181.911 101.69L181.856 101.769C181.738 101.938 181.772 102.176 181.932 102.3L183.159 103.254C183.319 103.379 183.544 103.342 183.661 103.173L183.716 103.094C183.834 102.925 183.799 102.687 183.639 102.563L182.413 101.609C182.253 101.485 182.028 101.521 181.911 101.69Z" fill="#FF8863"/>
<path d="M178.367 138.667L178.312 138.746C178.195 138.915 178.229 139.153 178.389 139.277L179.615 140.231C179.775 140.356 180 140.319 180.118 140.15L180.173 140.071C180.29 139.902 180.256 139.664 180.096 139.54L178.869 138.586C178.709 138.462 178.485 138.498 178.367 138.667Z" fill="#FF8863"/>
<path d="M202.501 143.069L202.446 143.148C202.329 143.317 202.363 143.555 202.523 143.679L203.749 144.633C203.909 144.757 204.134 144.721 204.252 144.552L204.307 144.473C204.424 144.304 204.39 144.066 204.23 143.942L203.003 142.988C202.844 142.863 202.619 142.9 202.501 143.069Z" fill="#FF8863"/>
<path d="M120.647 140.549L120.592 140.628C120.474 140.797 120.508 141.035 120.668 141.16L121.895 142.114C122.055 142.238 122.28 142.202 122.397 142.033L122.452 141.954C122.57 141.785 122.535 141.547 122.375 141.422L121.149 140.468C120.989 140.344 120.764 140.38 120.647 140.549Z" fill="#FF8863"/>
<path d="M103.073 138.906L103.018 138.985C102.901 139.154 102.935 139.392 103.095 139.516L104.322 140.47C104.482 140.595 104.706 140.558 104.824 140.389L104.879 140.31C104.996 140.141 104.962 139.903 104.802 139.779L103.576 138.825C103.416 138.701 103.191 138.737 103.073 138.906Z" fill="#FF8863"/>
<path d="M137.946 141.782L137.891 141.861C137.774 142.03 137.808 142.268 137.968 142.392L139.194 143.346C139.354 143.471 139.579 143.434 139.697 143.265L139.752 143.186C139.869 143.017 139.835 142.779 139.675 142.655L138.448 141.701C138.288 141.577 138.064 141.613 137.946 141.782Z" fill="#FF8863"/>
<path d="M156.762 140.549L156.707 140.628C156.59 140.797 156.624 141.035 156.784 141.16L158.01 142.114C158.17 142.238 158.395 142.202 158.513 142.033L158.568 141.954C158.685 141.785 158.651 141.547 158.491 141.422L157.264 140.468C157.105 140.344 156.88 140.38 156.762 140.549Z" fill="#FF8863"/>
<path d="M182.304 65.4556L182.25 65.3756C182.136 65.2044 181.911 65.1639 181.75 65.2853L180.507 66.2164C180.345 66.3377 180.307 66.5749 180.422 66.7462L180.475 66.8262C180.59 66.9974 180.814 67.0379 180.976 66.9165L182.219 65.9854C182.381 65.864 182.419 65.6269 182.304 65.4556Z" fill="#FF8863"/>
<path d="M161.551 68.6852L161.497 68.6052C161.382 68.434 161.158 68.3935 160.996 68.5149L159.754 69.446C159.592 69.5673 159.554 69.8045 159.669 69.9758L159.722 70.0557C159.837 70.227 160.061 70.2674 160.223 70.1461L161.465 69.215C161.627 69.0936 161.665 68.8564 161.551 68.6852Z" fill="#FF8863"/>
<path d="M127.229 100.473L127.176 100.393C127.061 100.222 126.837 100.181 126.675 100.303L125.433 101.234C125.271 101.355 125.233 101.592 125.347 101.763L125.401 101.843C125.516 102.015 125.74 102.055 125.902 101.934L127.144 101.003C127.306 100.881 127.344 100.644 127.229 100.473Z" fill="#FF8863"/>
<path d="M137.607 101.552L137.553 101.472C137.438 101.301 137.214 101.261 137.052 101.382L135.81 102.313C135.648 102.435 135.61 102.672 135.724 102.843L135.778 102.923C135.893 103.094 136.117 103.135 136.279 103.013L137.521 102.082C137.683 101.961 137.721 101.724 137.607 101.552Z" fill="#FF8863"/>
<path d="M157.666 101.552L157.613 101.472C157.498 101.301 157.274 101.261 157.112 101.382L155.87 102.313C155.708 102.435 155.67 102.672 155.784 102.843L155.838 102.923C155.953 103.094 156.177 103.135 156.339 103.013L157.581 102.082C157.743 101.961 157.781 101.724 157.666 101.552Z" fill="#FF8863"/>
<path d="M163.938 99.3014L163.884 99.2214C163.769 99.0502 163.545 99.0097 163.383 99.1311L162.141 100.062C161.979 100.184 161.941 100.421 162.056 100.592L162.109 100.672C162.224 100.843 162.448 100.884 162.61 100.762L163.852 99.8312C164.014 99.7098 164.052 99.4727 163.938 99.3014Z" fill="#FF8863"/>
<path d="M178.781 100.143L178.727 100.063C178.613 99.8915 178.389 99.8511 178.227 99.9724L176.984 100.904C176.823 101.025 176.784 101.262 176.899 101.433L176.953 101.513C177.067 101.685 177.292 101.725 177.453 101.604L178.696 100.673C178.858 100.551 178.896 100.314 178.781 100.143Z" fill="#FF8863"/>
<path d="M189.612 98.3483L189.558 98.2683C189.443 98.0971 189.219 98.0566 189.057 98.178L187.815 99.1091C187.653 99.2304 187.615 99.4676 187.73 99.6388L187.783 99.7189C187.898 99.8901 188.122 99.9305 188.284 99.8092L189.526 98.8781C189.688 98.7567 189.726 98.5195 189.612 98.3483Z" fill="#FF8863"/>
<path d="M204.317 99.3014L204.264 99.2214C204.149 99.0502 203.925 99.0097 203.763 99.1311L202.521 100.062C202.359 100.184 202.321 100.421 202.435 100.592L202.489 100.672C202.604 100.843 202.828 100.884 202.99 100.762L204.232 99.8312C204.394 99.7098 204.432 99.4727 204.317 99.3014Z" fill="#FF8863"/>
<path d="M158.615 62.656L158.527 62.6278C158.337 62.5675 158.136 62.6815 158.079 62.8825L157.641 64.4249C157.584 64.6259 157.692 64.8378 157.882 64.8981L157.971 64.9263C158.161 64.9867 158.361 64.8727 158.418 64.6717L158.856 63.1293C158.913 62.9283 158.805 62.7164 158.615 62.656Z" fill="#FF8863"/>
<path d="M170.778 62.0851L170.689 62.0569C170.499 61.9966 170.299 62.1106 170.242 62.3116L169.804 63.8539C169.747 64.0549 169.855 64.2668 170.045 64.3272L170.134 64.3554C170.324 64.4157 170.524 64.3017 170.581 64.1007L171.019 62.5583C171.076 62.3573 170.968 62.1455 170.778 62.0851Z" fill="#FF8863"/>
<path d="M154.08 67.2867L153.992 67.2585C153.802 67.1981 153.601 67.3121 153.544 67.5131L153.106 69.0555C153.049 69.2565 153.157 69.4684 153.347 69.5288L153.436 69.557C153.626 69.6173 153.826 69.5033 153.883 69.3023L154.321 67.7599C154.378 67.5589 154.27 67.347 154.08 67.2867Z" fill="#FF8863"/>
<path d="M130.291 68.2094L130.202 68.1812C130.012 68.1208 129.812 68.2348 129.755 68.4358L129.317 69.9782C129.26 70.1792 129.368 70.3911 129.558 70.4515L129.646 70.4797C129.837 70.54 130.037 70.426 130.094 70.225L130.532 68.6826C130.589 68.4816 130.481 68.2697 130.291 68.2094Z" fill="#FF8863"/>
<path d="M172.644 66.1333L172.555 66.1051C172.365 66.0448 172.165 66.1588 172.108 66.3598L171.67 67.9022C171.613 68.1032 171.721 68.3151 171.911 68.3754L171.999 68.4036C172.189 68.464 172.39 68.35 172.447 68.149L172.885 66.6066C172.942 66.4056 172.834 66.1937 172.644 66.1333Z" fill="#FF8863"/>
<path d="M128.304 62.656L128.215 62.6278C128.025 62.5675 127.825 62.6815 127.768 62.8825L127.33 64.4249C127.273 64.6259 127.381 64.8378 127.571 64.8981L127.659 64.9263C127.85 64.9867 128.05 64.8727 128.107 64.6717L128.545 63.1293C128.602 62.9283 128.494 62.7164 128.304 62.656Z" fill="#FF8863"/>
<path d="M140.8 64.9799L140.711 64.9517C140.521 64.8913 140.321 65.0054 140.264 65.2064L139.826 66.7487C139.769 66.9497 139.877 67.1616 140.067 67.222L140.155 67.2502C140.345 67.3105 140.546 67.1965 140.603 66.9955L141.041 65.4531C141.098 65.2521 140.99 65.0402 140.8 64.9799Z" fill="#FF8863"/>
<path d="M133.167 98.7495L133.078 98.7213C132.888 98.661 132.688 98.775 132.631 98.976L132.193 100.518C132.136 100.719 132.244 100.931 132.434 100.992L132.523 101.02C132.713 101.08 132.913 100.966 132.97 100.765L133.408 99.2228C133.465 99.0218 133.357 98.8099 133.167 98.7495Z" fill="#FF8863"/>
<path d="M151.837 98.7493L151.748 98.7211C151.558 98.6607 151.358 98.7748 151.3 98.9758L150.863 100.518C150.806 100.719 150.913 100.931 151.103 100.991L151.192 101.02C151.382 101.08 151.583 100.966 151.64 100.765L152.077 99.2225C152.135 99.0215 152.027 98.8096 151.837 98.7493Z" fill="#FF8863"/>
<path d="M195.183 99.6669L195.094 99.6387C194.904 99.5783 194.703 99.6924 194.646 99.8934L194.208 101.436C194.151 101.637 194.259 101.849 194.449 101.909L194.538 101.937C194.728 101.998 194.928 101.884 194.985 101.683L195.423 100.14C195.48 99.9391 195.373 99.7273 195.183 99.6669Z" fill="#FF8863"/>
<path d="M199.72 99.6665L199.631 99.6383C199.441 99.578 199.241 99.692 199.184 99.893L198.746 101.435C198.689 101.636 198.796 101.848 198.986 101.909L199.075 101.937C199.265 101.997 199.466 101.883 199.523 101.682L199.961 100.14C200.018 99.9388 199.91 99.7269 199.72 99.6665Z" fill="#FF8863"/>
<path d="M145.789 68.2094L145.7 68.1812C145.51 68.1208 145.31 68.2348 145.253 68.4358L144.815 69.9782C144.758 70.1792 144.865 70.3911 145.055 70.4515L145.144 70.4797C145.334 70.54 145.535 70.426 145.592 70.225L146.029 68.6826C146.087 68.4816 145.979 68.2697 145.789 68.2094Z" fill="#FF8863"/>
<path opacity="0.1" d="M113.223 215.438C138.812 215.438 159.556 213.464 159.556 211.03C159.556 208.595 138.812 206.621 113.223 206.621C87.6341 206.621 66.8901 208.595 66.8901 211.03C66.8901 213.464 87.6341 215.438 113.223 215.438Z" fill="#FF8863"/>
<path opacity="0.1" d="M51.5028 193.266C55.5911 193.266 58.9052 192.911 58.9052 192.473C58.9052 192.035 55.5911 191.68 51.5028 191.68C47.4145 191.68 44.1004 192.035 44.1004 192.473C44.1004 192.911 47.4145 193.266 51.5028 193.266Z" fill="#FF8863"/>
<path opacity="0.1" d="M31.5789 213.121C35.6672 213.121 38.9813 212.766 38.9813 212.328C38.9813 211.89 35.6672 211.534 31.5789 211.534C27.4907 211.534 24.1765 211.89 24.1765 212.328C24.1765 212.766 27.4907 213.121 31.5789 213.121Z" fill="#FF8863"/>
<path opacity="0.1" d="M235.011 210.738C239.099 210.738 242.414 210.383 242.414 209.945C242.414 209.507 239.099 209.152 235.011 209.152C230.923 209.152 227.609 209.507 227.609 209.945C227.609 210.383 230.923 210.738 235.011 210.738Z" fill="#FF8863"/>
<path opacity="0.1" d="M217.02 219.141C221.108 219.141 224.423 218.786 224.423 218.348C224.423 217.91 221.108 217.555 217.02 217.555C212.932 217.555 209.618 217.91 209.618 218.348C209.618 218.786 212.932 219.141 217.02 219.141Z" fill="#FF8863"/>
<path opacity="0.1" d="M195.74 205.578C199.828 205.578 203.142 205.223 203.142 204.785C203.142 204.347 199.828 203.992 195.74 203.992C191.651 203.992 188.337 204.347 188.337 204.785C188.337 205.223 191.651 205.578 195.74 205.578Z" fill="#FF8863"/>
<path opacity="0.1" d="M162.243 224C166.331 224 169.646 223.645 169.646 223.207C169.646 222.769 166.331 222.414 162.243 222.414C158.155 222.414 154.841 222.769 154.841 223.207C154.841 223.645 158.155 224 162.243 224Z" fill="#FF8863"/>
<path d="M139.931 116.798L136.637 124.208C136.637 124.208 136.151 125.598 135.838 125.856C135.527 126.114 134.141 130.514 134.141 130.514L130.605 136.278V136.281L130.363 136.675L128.977 136.27L128.006 132.427L128.064 131.312L128.073 131.171C128.073 131.171 130.258 128.754 130.743 128.57C130.743 128.57 131.123 128.616 131.853 126.742C132.582 124.865 133.239 124.463 133.239 124.463L133.619 123.105L137.713 116.211C137.713 116.211 141.143 111.007 142.078 113.316C143.015 115.624 139.931 116.798 139.931 116.798Z" fill="#FFD2C6"/>
<path d="M100.077 124.586C99.8995 124.979 99.7709 125.395 99.6941 125.824C99.6719 125.932 99.6498 126.047 99.6248 126.164C99.3974 127.399 99.2421 128.954 99.1644 129.854C99.1256 130.309 99.1062 130.599 99.1062 130.599C99.1062 130.599 90.8308 130.013 92.2645 128.546C92.6321 128.139 92.8931 127.637 93.0216 127.091C93.0632 126.935 93.0993 126.777 93.1298 126.616C93.1973 126.25 93.2408 125.879 93.2602 125.507C93.2657 125.413 93.2684 125.319 93.2712 125.225C93.2882 124.62 93.2604 124.013 93.188 123.412C93.188 123.412 95.8809 123.395 97.9081 123.641C99.2726 123.808 100.338 124.093 100.077 124.586Z" fill="#D38884"/>
<path d="M126.242 169.429C126.232 169.555 126.194 169.676 126.131 169.784C125.752 170.37 123.602 182.359 123.602 182.359C123.774 183.169 123.292 184.782 122.978 185.516C122.665 186.249 121.972 190.062 121.972 190.062C121.972 190.062 121.8 198.276 121.35 199.558C120.898 200.84 121.495 203.591 121.495 203.591C121.45 204.856 122.169 206.193 122.596 206.874C122.626 206.918 122.654 206.962 122.679 207C122.817 207.211 122.909 207.331 122.909 207.331C123.027 207.576 123.192 207.792 123.394 207.965C123.425 207.991 123.458 208.018 123.491 208.044C124.081 208.462 124.741 208.757 125.435 208.913C125.458 208.918 125.48 208.921 125.502 208.927C125.779 208.992 125.96 209.018 125.96 209.018L126.131 210.01L124.296 210.411L120.796 210.667C120.796 210.667 116.669 210.998 117.607 209.053C117.671 208.921 117.728 208.783 117.776 208.643H117.779C117.812 208.549 117.845 208.452 117.873 208.352C118.436 206.484 118.056 204.213 118.056 204.213L117.257 197.578C115.943 191.418 118.294 184.559 118.294 184.559C118.294 184.559 118.089 184.011 118.541 182.617C118.993 181.224 118.541 178.182 118.541 178.182C118.541 178.182 118.3 174.257 117.986 172.315C117.863 171.499 117.822 170.671 117.862 169.845C117.877 169.361 117.918 168.878 117.986 168.399L125.89 167.29C125.89 167.29 126.337 168.654 126.242 169.429Z" fill="#FFD2C6"/>
<path opacity="0.1" d="M126.132 210.01L124.296 210.411L120.796 210.667C120.796 210.667 116.669 210.998 117.607 209.053C117.671 208.92 117.728 208.783 117.776 208.643H117.779C117.812 208.549 117.845 208.452 117.873 208.352C118.588 208.376 119.295 208.527 119.964 208.798C121.14 209.276 122.024 208.027 122.024 208.027L122.596 206.874L122.679 206.707C122.817 206.918 122.909 207.038 122.909 207.038C123.046 207.322 123.246 207.566 123.491 207.751L123.394 207.965L122.84 209.2C122.84 209.2 123.55 209.276 124.52 209.44C124.708 209.494 124.908 209.469 125.078 209.371C125.249 209.272 125.377 209.108 125.435 208.912C125.458 208.918 125.48 208.921 125.502 208.927C125.779 208.992 125.96 209.018 125.96 209.018L126.132 210.01Z" fill="black"/>
<path d="M127.831 210.925C127.693 211.585 123.827 211.787 123.827 211.787C123.827 211.787 121.678 211.567 121.073 212.098C120.466 212.629 118.696 212.503 118.627 212.503C118.558 212.503 117.623 212.465 117.257 210.69C116.902 208.96 117.734 208.657 117.776 208.643H117.778C118.526 208.654 119.266 208.806 119.964 209.092C121.14 209.57 122.024 208.32 122.024 208.32L122.679 207C122.817 207.211 122.909 207.331 122.909 207.331C123.046 207.615 123.246 207.86 123.491 208.044L122.84 209.493C122.84 209.493 123.55 209.57 124.52 209.734C125.297 209.866 125.466 209.197 125.502 208.927C125.507 208.89 125.51 208.853 125.51 208.816C125.51 208.816 126.115 209.001 126.861 209.221C127.195 209.325 127.479 209.558 127.659 209.873C127.839 210.189 127.9 210.564 127.831 210.925Z" fill="#626696"/>
<path d="M135.111 178.167C135.02 178.754 134.926 180.271 134.926 180.271C135.25 181.541 134.418 184.559 134.418 184.559L134.002 186.284C134.188 188.484 132.859 193.861 132.859 193.861C132.859 193.861 131.969 198.848 131.506 201.001C131.232 202.197 131.316 203.454 131.747 204.597C131.77 204.656 131.783 204.685 131.783 204.685C131.792 204.727 131.8 204.765 131.811 204.806C131.825 204.864 131.842 204.922 131.861 204.979C131.964 205.279 132.118 205.556 132.316 205.797C132.392 205.894 132.475 205.985 132.566 206.067C132.571 206.073 132.574 206.079 132.579 206.082C133.014 206.49 133.512 206.814 134.052 207.041H134.055L134.058 207.044C134.138 207.079 134.216 207.111 134.291 207.141C134.531 207.237 134.776 207.318 135.025 207.384H135.028C135.081 207.399 135.111 207.405 135.111 207.405L134.926 208.558L132.477 207.895L129.196 206.768L127.582 205.791C127.582 205.791 127.599 205.697 127.632 205.519C127.635 205.51 127.635 205.498 127.637 205.489C127.651 205.413 127.665 205.322 127.685 205.219C127.937 203.706 128.564 199.473 128.25 196.355C127.859 192.494 129.379 187.164 129.751 185.894C129.971 185.168 130.064 184.406 130.028 183.644C129.426 182.714 129.288 179.001 129.288 179.001C129.288 179.001 128.178 176.604 127.26 174.061C126.957 173.23 126.736 172.369 126.6 171.491C126.494 170.872 126.449 170.243 126.467 169.614C126.467 169.614 133.911 162.427 134.729 169.385C134.756 169.62 134.781 169.845 134.806 170.065C135.527 176.428 135.2 177.601 135.111 178.167Z" fill="#FFD2C6"/>
<path opacity="0.1" d="M135.111 207.405L134.926 208.558L132.477 207.895L129.196 206.768L127.582 205.791C127.582 205.791 127.599 205.697 127.632 205.519C127.635 205.51 127.635 205.498 127.637 205.489C127.651 205.413 127.665 205.322 127.685 205.219L127.915 205.196L127.934 205.193C128.4 205.146 128.87 205.213 129.307 205.389C129.842 205.601 130.541 205.844 130.685 205.741C130.933 205.629 131.201 205.579 131.47 205.595L131.811 204.806L131.861 204.685C131.964 204.985 132.118 205.263 132.316 205.504C132.397 205.606 132.485 205.701 132.579 205.788L132.566 206.067L132.546 206.463C132.913 206.71 133.309 206.903 133.725 207.038C133.832 207.067 133.944 207.068 134.052 207.041H134.055L134.058 207.044C134.138 207.079 134.216 207.111 134.291 207.141C134.531 207.237 134.776 207.318 135.025 207.384H135.028C135.081 207.399 135.111 207.405 135.111 207.405Z" fill="black"/>
<path d="M133.886 209.863C133.203 209.655 131.553 209.323 131.287 209.581C131.021 209.839 128.733 209.581 128.733 209.581C128.493 209.577 128.259 209.507 128.052 209.378C127.846 209.25 127.674 209.067 127.554 208.848C127.08 208.065 127.463 205.536 127.463 205.536L127.632 205.519L127.915 205.489L127.934 205.486C128.4 205.439 128.87 205.507 129.307 205.683C129.842 205.894 130.541 206.137 130.685 206.035C130.933 205.922 131.201 205.872 131.47 205.888L131.861 204.979C131.964 205.279 132.118 205.556 132.316 205.797C132.397 205.899 132.485 205.994 132.579 206.082L132.546 206.756C132.913 207.003 133.309 207.197 133.725 207.331C133.825 207.372 133.936 207.375 134.039 207.341C134.142 207.306 134.231 207.236 134.29 207.141C134.308 207.109 134.322 207.076 134.332 207.041L134.335 207.044C134.357 207.085 134.582 207.167 135.303 207.384H135.305C136.088 207.337 136.845 207.698 137.191 208.822C137.538 209.948 134.568 210.068 133.886 209.863Z" fill="#626696"/>
<path opacity="0.1" d="M126.242 169.429C126.09 169.476 125.951 169.52 125.821 169.564C125.487 169.671 125.146 169.747 124.8 169.793C122.612 170.118 119.007 169.922 117.862 169.845C117.877 169.361 117.918 168.878 117.986 168.399L125.89 167.29C125.89 167.29 126.337 168.654 126.242 169.429Z" fill="black"/>
<path d="M133.137 167.399C133.137 167.399 130.236 167.874 127.876 168.42C127.088 168.602 126.359 168.792 125.821 168.977C125.488 169.084 125.146 169.16 124.8 169.206C122.171 169.596 117.501 169.235 117.501 169.235C116.22 164.835 119.06 159.297 119.06 159.297C118.993 158.857 119.65 157.502 119.65 157.502L119.662 157.458L120.066 155.888H130.846L130.979 156.563L131.254 157.936L132.945 166.437L133.137 167.399Z" fill="#626696"/>
<path opacity="0.1" d="M134.806 170.065L134.743 170.095L133.481 170.687C132.116 171.353 128.028 171.479 126.6 171.491C126.494 170.872 126.449 170.243 126.467 169.614C126.467 169.614 133.911 162.427 134.729 169.385C134.756 169.62 134.781 169.845 134.806 170.065Z" fill="black"/>
<path d="M135.006 169.385L134.742 169.508L133.481 170.101C132.091 170.778 127.873 170.899 126.523 170.904C126.359 170.904 126.237 170.904 126.168 170.901C125.544 170.881 124.92 170.262 124.92 170.101C124.92 170.013 124.856 169.578 124.8 169.206C124.753 168.907 124.712 168.649 124.712 168.649C124.712 168.649 121.938 167.378 120.518 166.352C119.459 165.589 119.725 160.171 119.931 157.446C120.003 156.507 120.066 155.888 120.066 155.888L130.979 156.563L132.51 156.657L133.386 156.862L133.619 156.915C133.619 156.915 134.246 161.755 134.557 162.157C134.867 162.559 134.662 163.917 134.626 164.689C134.624 165.021 134.59 165.352 134.523 165.677C134.523 165.677 134.973 167.035 134.867 167.795C134.817 168.329 134.865 168.869 135.006 169.385Z" fill="#626696"/>
<path d="M85.7475 166.24C82.9272 166.14 85.0071 159.933 85.3315 159.094C85.656 158.255 84.849 156.217 84.849 156.217C84.849 156.217 83.8978 150.3 83.8978 149.91C83.849 149.104 83.7414 148.302 83.576 147.513C83.4374 146.977 83.6205 145.706 83.9449 145.167C84.2693 144.63 84.2222 142.48 84.2222 142.48V139.693L84.849 138.813L86.4574 140.42L86.9039 140.866L87.6887 143.982L87.4114 148.443L87.2728 152.793L88.2434 158.807C88.2434 158.807 88.5678 166.337 85.7475 166.24Z" fill="#D38884"/>
<path opacity="0.1" d="M86.6264 141.16L84.222 140.106V139.693L84.849 138.813L86.4574 140.42L86.6264 141.16Z" fill="black"/>
<path d="M85.5164 134.803C85.2083 135.606 84.9847 136.442 84.8494 137.296C84.7254 138.117 84.515 138.921 84.2222 139.692L86.903 140.865L85.5164 134.803Z" fill="#4C4981"/>
<path opacity="0.05" d="M85.5164 134.803C85.2083 135.606 84.9847 136.442 84.8494 137.296C84.7254 138.117 84.515 138.921 84.2222 139.692L86.903 140.865L85.5164 134.803Z" fill="black"/>
<path d="M106.791 196.542L106.569 197.041C106.569 197.041 106.328 198.701 106.328 198.739C106.328 198.775 105.634 199.886 105.634 199.886L103.89 200.28L103.15 200.186C103.112 199.73 103.046 199.277 102.953 198.83C102.925 198.704 102.897 198.575 102.864 198.443C102.605 197.409 102.194 196.424 101.647 195.524C101.647 195.524 100.354 192.151 99.8911 191.711C99.428 191.271 97.6725 186.821 97.8582 185.747C97.9581 185.155 97.8777 183.181 97.7861 181.532C97.7113 180.189 97.6281 179.059 97.6281 179.059L102.018 176.311L102.528 177.164C102.528 177.166 102.528 177.168 102.529 177.169C102.529 177.171 102.53 177.172 102.531 177.173L102.836 177.681C102.836 177.681 102.833 177.777 102.82 177.939C102.82 177.956 102.817 177.977 102.817 177.997C102.766 178.688 102.635 179.37 102.426 180.027C102.426 180.027 102.096 182.521 102.426 182.961C102.748 183.386 103.799 189.282 104.032 192.001C104.04 192.087 104.045 192.169 104.051 192.248C104.142 193.497 104.875 194.612 105.61 195.428L105.618 195.436C105.665 195.489 105.715 195.542 105.765 195.595C106.087 195.934 106.43 196.251 106.791 196.542Z" fill="#D38884"/>
<path opacity="0.1" d="M103.15 200.186L103.89 200.279L105.634 199.886C105.634 199.886 106.328 198.775 106.328 198.739C106.328 198.701 106.569 197.041 106.569 197.041L106.791 196.542L106.819 196.481C106.392 196.167 105.991 195.818 105.618 195.436L105.609 195.428C105.568 195.387 105.529 195.346 105.487 195.302C105.487 195.302 105.737 196.918 104.409 197.639C103.765 197.989 103.236 198.258 102.864 198.443L103.15 200.186Z" fill="black"/>
<path d="M107.096 196.774L106.846 197.334C106.846 197.334 106.605 198.995 106.605 199.033C106.605 199.068 105.912 200.18 105.912 200.18L104.167 200.573L103.166 200.447C103.155 200.233 103.133 199.93 103.08 199.564C103.05 199.341 103.008 199.094 102.953 198.83C103.324 198.649 103.923 198.346 104.686 197.933C106.014 197.211 105.765 195.595 105.765 195.595C106.053 195.899 106.357 196.185 106.677 196.451C106.86 196.601 107.007 196.71 107.096 196.774Z" fill="#CEDDF9"/>
<path opacity="0.1" d="M107.096 196.774L106.846 197.334C106.846 197.334 106.605 198.995 106.605 199.033C106.605 199.068 105.912 200.18 105.912 200.18L104.167 200.573L103.166 200.447C103.155 200.233 103.133 199.93 103.08 199.564C103.294 199.573 103.507 199.603 103.715 199.655C103.715 199.655 106.098 200.194 106.211 198.2C106.278 197.067 106.5 196.624 106.677 196.451C106.86 196.601 107.007 196.71 107.096 196.774Z" fill="black"/>
<path d="M106.921 196.643C106.921 196.643 106.327 196.502 106.212 198.495C106.096 200.487 103.716 199.949 103.716 199.949C103.716 199.949 102.549 199.643 102.537 200.157C102.576 200.631 102.681 201.096 102.849 201.538C102.849 201.538 102.918 202.724 103.138 203.005C103.358 203.286 103.219 204.337 103.219 204.337C103.219 204.337 103.311 205.119 105.149 204.337C105.149 204.337 106.791 203.979 108.153 201.819C108.199 201.746 107.991 201.526 109.181 201.073C110.372 200.621 113.78 197.725 113.515 196.307C113.489 196.072 113.4 195.851 113.256 195.67C113.113 195.49 112.922 195.358 112.708 195.291C112.53 195.24 112.344 195.227 112.161 195.253C111.978 195.279 111.802 195.343 111.643 195.442C111.321 195.625 110.989 195.788 110.649 195.928C110.195 196.122 109.717 196.243 109.229 196.286C108.855 196.319 108.486 196.394 108.127 196.51C107.727 196.637 107.216 196.754 106.921 196.643Z" fill="#CC8294"/>
<path d="M93.4432 182.946C93.1812 183.179 92.9557 183.454 92.7748 183.761C92.1009 184.847 91.6988 186.363 91.2412 187.018C90.6533 187.862 90.4952 189.511 90.4952 189.511C90.3399 190.593 88.174 196.369 87.5833 197.396C86.9954 198.423 86.1801 201.209 86.1801 201.209C85.6809 201.872 85.7114 202.855 85.7613 203.324C85.7724 203.406 85.7807 203.471 85.7863 203.515C85.7945 203.565 85.8001 203.591 85.8001 203.591L85.7863 203.618L84.9848 205.058L82.4362 204.685L81.1189 203.738C81.227 203.554 81.3225 203.362 81.4046 203.163C82.1089 201.5 82.6109 198.531 82.6109 198.531C82.6109 198.531 83.3208 195.14 83.2682 194.351C83.2182 193.562 83.4762 191.124 83.4762 191.124C83.4762 191.124 85.4701 184.636 86.0969 183.571C86.3645 183.156 86.5304 182.677 86.5794 182.177C86.5879 182.077 86.5833 181.975 86.5655 181.875L87.428 180.969C87.428 180.969 94.5525 182.013 93.4432 182.946Z" fill="#D38884"/>
<path opacity="0.1" d="M85.8001 203.298C85.8001 203.298 85.7918 203.38 85.7863 203.515V203.618L84.9848 205.058L82.4362 204.686L81.1189 203.738C81.2271 203.554 81.3225 203.362 81.4046 203.163C82.0452 202.969 83.5122 203.518 83.5122 203.518C83.5122 203.518 85.0958 203.838 85.7613 203.324C85.7755 203.318 85.7885 203.309 85.8001 203.298Z" fill="black"/>
<path d="M85.1762 207.147L82.5915 207.81L80.2176 205.956L80.3396 204.911C80.5055 204.798 80.6526 204.656 80.775 204.492C80.9485 204.276 81.0669 204.016 81.1189 203.738C81.2576 202.969 83.5122 203.811 83.5122 203.811C83.5122 203.811 85.1595 204.143 85.8001 203.591C85.7556 204.098 85.7969 204.608 85.9222 205.099C85.9833 205.338 86.1167 205.549 86.3021 205.7C86.9621 206.176 85.1762 207.147 85.1762 207.147Z" fill="#CEDDF9"/>
<path opacity="0.1" d="M85.1762 207.147L82.5915 207.81L80.2176 205.956L80.3396 204.911C80.5055 204.798 80.6526 204.656 80.7751 204.492C80.947 204.489 81.1356 204.492 81.2936 204.507C81.693 204.545 82.6276 206.343 82.6276 206.343C84.9737 206.507 85.6726 205.698 85.9222 205.099C85.9833 205.338 86.1168 205.549 86.3021 205.7C86.9622 206.176 85.1762 207.147 85.1762 207.147Z" fill="black"/>
<path d="M82.6276 206.635C82.6276 206.635 81.6916 204.838 81.2929 204.801C80.9581 204.781 80.6225 204.781 80.2876 204.801C80.2876 204.801 79.2476 207.405 78.8663 207.643C78.485 207.881 77.9303 209.11 77.9303 209.11C77.9303 209.11 80.6762 211.915 83.3331 211.383C84.1796 211.396 85.0119 211.615 85.7648 212.025C86.9954 212.703 92.1259 212.19 92.7499 210.998C93.2179 210.104 93.4032 209.454 92.9912 208.978C92.8685 208.842 92.7167 208.74 92.5488 208.68C92.3809 208.62 92.2018 208.603 92.0265 208.632C91.3807 208.725 89.9324 208.705 88.6594 207.056C88.6594 207.056 86.3194 204.787 86.1288 204.785C85.9381 204.783 86.2848 206.891 82.6276 206.635Z" fill="#CC8294"/>
<path opacity="0.1" d="M102.836 177.974C102.83 177.982 102.824 177.99 102.817 177.997C102.659 178.182 101.527 179.493 101.186 179.587C100.618 179.814 100.062 180.075 99.5222 180.368C99.5222 180.368 98.8289 181.347 98.2742 181.394C98.107 181.42 97.9431 181.466 97.7861 181.532C97.7113 180.189 97.6281 179.059 97.6281 179.059L102.018 176.311L102.528 177.164C102.528 177.166 102.528 177.167 102.529 177.169C102.529 177.171 102.53 177.172 102.531 177.173C102.648 177.519 102.778 177.836 102.82 177.939L102.836 177.974Z" fill="black"/>
<path d="M86.8568 159.093C86.8568 159.093 85.1466 161.448 86.8568 164.577C88.5669 167.706 90.3695 169.27 90.3695 169.27L96.1934 182.031C96.1934 182.031 97.7187 181.151 98.2733 181.102C98.828 181.053 99.5213 180.075 99.5213 180.075C100.062 179.782 100.617 179.521 101.185 179.293C101.555 179.195 102.836 177.68 102.836 177.68C102.836 177.68 102.202 176.213 102.341 175.822C102.479 175.431 101.925 174.453 101.925 174.453C101.756 173.961 101.632 173.454 101.555 172.937C101.555 172.546 100.954 171.617 100.954 171.617C100.954 171.617 100.353 170.639 100.353 170.102C100.353 169.564 99.4751 167.461 99.4751 167.461L99.244 158.172L86.8568 159.093Z" fill="#CEDDF9"/>
<path opacity="0.05" d="M102.836 177.681C102.836 177.681 101.555 179.194 101.186 179.294C100.618 179.521 100.062 179.781 99.5222 180.074C99.5222 180.074 98.8289 181.054 98.2742 181.101C97.8785 181.189 97.496 181.335 97.1372 181.532C96.6408 181.773 96.1943 182.031 96.1943 182.031L90.3704 169.27C89.8611 168.8 89.3882 168.287 88.9561 167.736C88.1663 166.753 87.4636 165.696 86.8568 164.577C86.1895 163.443 85.9527 162.084 86.1939 160.772C86.3021 160.17 86.5278 159.599 86.8568 159.094L91 158.786L99.2448 158.173L99.3142 160.919L99.475 167.46C99.475 167.46 99.6109 167.789 99.7773 168.22C100.032 168.88 100.354 169.775 100.354 170.101C100.354 170.64 100.953 171.617 100.953 171.617C100.953 171.617 101.555 172.547 101.555 172.937C101.632 173.454 101.755 173.962 101.924 174.454C101.924 174.454 102.478 175.431 102.34 175.821C102.201 176.214 102.836 177.681 102.836 177.681Z" fill="black"/>
<path opacity="0.1" d="M93.4432 182.946C93.1812 183.179 92.9557 183.454 92.7749 183.761C90.2595 183.952 87.3365 182.562 86.5794 182.177C86.5879 182.077 86.5833 181.975 86.5656 181.875L87.4281 180.969C87.4281 180.969 94.5525 182.013 93.4432 182.946Z" fill="black"/>
<path d="M100.862 161.987C100.862 161.987 100.493 163.354 100.354 163.94C100.215 164.527 99.9382 167.414 99.9382 167.414L99.7774 168.22L97.1372 181.532L96.5631 184.427C95.5454 185.014 93.005 183.448 93.005 183.448C90.046 183.791 86.3936 181.787 86.3936 181.787C86.3936 181.787 86.9954 179.734 86.8568 178.707C86.7181 177.681 87.6887 176.847 87.6887 176.847C87.4585 175.921 88.2877 171.861 88.2877 171.861C88.2877 171.861 88.4736 170.347 89.1669 169.954C89.8602 169.564 89.0754 168.977 88.8896 168.634C88.798 168.467 88.8646 168.082 88.9561 167.736C89.0158 167.511 89.0861 167.289 89.1669 167.07C87.4059 165.208 87.1341 162.292 87.1313 160.676C87.1271 160.281 87.1438 159.886 87.1812 159.493L91 158.787L99.3364 157.244L100.185 160.013V160.019L100.399 160.714L100.862 161.987Z" fill="#CEDDF9"/>
<path opacity="0.1" d="M100.077 124.586C99.8995 124.979 99.7709 125.395 99.6942 125.824C99.6719 125.932 99.6498 126.047 99.6248 126.164C98.8206 126.715 98.3232 126.72 97.2944 126.72C96.9394 126.72 96.7427 126.003 96.4072 125.929C96.4072 125.929 95.9037 124.01 95.7595 125.628C94.7916 125.417 93.9563 126.217 93.2713 125.519L93.2602 125.507C93.2657 125.413 93.2685 125.319 93.2713 125.225C93.2882 124.62 93.2604 124.013 93.1881 123.412C93.1881 123.412 95.8809 123.395 97.9082 123.641C99.2726 123.808 100.338 124.093 100.077 124.586Z" fill="black"/>
<path d="M101.985 121.295C101.985 122.103 101.815 122.901 101.487 123.631C101.159 124.362 100.681 125.005 100.089 125.516C99.4967 126.027 98.8043 126.392 98.062 126.585C97.3198 126.777 96.5463 126.793 95.7977 126.63C95.7977 126.63 95.7949 126.627 95.7949 126.63C94.8412 126.422 93.9629 125.932 93.2618 125.217C92.5607 124.503 92.0656 123.592 91.834 122.592C91.6023 121.591 91.6437 120.542 91.9531 119.565C92.2626 118.588 92.8276 117.725 93.5825 117.074C94.3373 116.423 95.2512 116.012 96.218 115.889C97.1847 115.765 98.1648 115.934 99.0445 116.376C99.9241 116.818 100.667 117.514 101.188 118.385C101.708 119.256 101.985 120.264 101.985 121.295Z" fill="#D38884"/>
<path opacity="0.1" d="M99.1644 129.854C99.1256 130.309 99.1062 130.599 99.1062 130.599C99.1062 130.599 90.8308 130.013 92.2645 128.546C92.6321 128.139 92.8931 127.637 93.0216 127.091L96.6102 127.713C96.6102 127.713 97.6253 128.546 98.4128 129.326C98.6383 129.539 98.8913 129.717 99.1644 129.854Z" fill="black"/>
<path opacity="0.1" d="M100.399 161.007C100.035 161.056 99.6661 161.026 99.3142 160.919C99.1598 160.87 99.0118 160.801 98.8733 160.714C98.18 160.274 95.8698 160.813 95.8698 160.813C95.8698 160.813 89.5829 161.253 89.3056 160.813C89.1475 160.561 88.0409 160.599 87.1313 160.676C86.7624 160.708 86.4241 160.746 86.1939 160.772C86.3021 160.17 86.5278 159.599 86.8568 159.094L91 158.786L99.3364 157.243L100.185 160.013V160.018C100.282 160.585 100.399 161.007 100.399 161.007Z" fill="black"/>
<path d="M96.6094 128.007L92.0979 127.225C92.0184 127.413 91.9012 127.58 91.7544 127.715C91.6076 127.85 91.4347 127.95 91.2477 128.007C90.6469 128.154 87.9661 129.621 86.7643 131.381L85.5626 133.141C85.5626 133.141 84.5919 134.412 84.9155 135.439C85.239 136.465 85.6088 139.936 85.6088 139.936L86.071 143.799C86.071 143.799 86.9492 146.585 86.6719 147.808C86.3945 149.03 86.8105 154.163 86.8105 154.163L85.8861 160.519C85.8861 160.519 89.0291 160.079 89.3065 160.519C89.5838 160.959 95.8698 160.519 95.8698 160.519C95.8698 160.519 98.1809 159.981 98.8742 160.421C99.3404 160.687 99.8745 160.79 100.399 160.715C100.399 160.715 99.8448 158.71 100.168 157.586C100.492 156.461 100.399 154.408 100.399 154.408C100.399 154.408 100.862 151.426 100.631 150.888C100.399 150.35 101.139 148.394 101.139 148.394L103.589 134.754C103.589 134.754 103.292 132.31 101.984 131.478C100.677 130.647 99.1977 130.403 98.4119 129.621C97.6262 128.838 96.6094 128.007 96.6094 128.007Z" fill="#4C4981"/>
<path d="M98.6893 141.452V143.065L100.115 147.123L100.631 150.888C100.631 150.888 101.555 153.577 101.555 154.506C101.555 155.435 103.82 159.932 103.82 159.932C103.82 159.932 104.437 161.448 104.128 161.741C103.82 162.035 101.139 168.488 104.513 168.293C107.887 168.097 106.824 161.35 106.824 161.35L106.362 158.417C106.362 158.417 105.715 151.083 105.715 150.546C105.715 150.546 104.883 147.417 104.79 146.732C104.698 146.048 104.097 142.576 104.097 142.576L103.589 140.328L98.6893 141.452Z" fill="#D38884"/>
<path opacity="0.1" d="M97.0832 146.536L92.0567 149.58L90.4967 152.073L92.5765 149.837L97.0832 146.536Z" fill="black"/>
<path opacity="0.1" d="M95.5578 152.367C95.5578 152.367 93.2699 153.943 92.1953 153.943C91.1206 153.943 88.6247 156.657 88.6247 156.657C88.6247 156.657 92.1606 154.241 92.4379 154.312C92.7152 154.383 95.5578 152.367 95.5578 152.367Z" fill="black"/>
<path opacity="0.1" d="M89.6993 153.21C89.6993 153.21 87.5501 155.263 88.1047 155.483C88.6594 155.703 91.5366 153.21 91.5366 153.21H89.6993Z" fill="black"/>
<path opacity="0.1" d="M99.1977 145.877C99.1977 145.877 97.5338 148.26 97.9844 148.223C98.4351 148.187 99.7177 146.83 99.7177 146.83L99.1977 145.877Z" fill="black"/>
<path opacity="0.1" d="M99.4404 148.224C99.4404 148.224 97.6378 150.387 97.7071 150.937C97.7764 151.487 99.4404 148.224 99.4404 148.224Z" fill="black"/>
<path opacity="0.1" d="M99.891 149.305C99.891 149.305 98.6777 151.597 99.1977 152.073C99.7177 152.55 99.891 149.305 99.891 149.305Z" fill="black"/>
<path opacity="0.1" d="M98.3311 143.42C98.3311 143.42 97.4298 145.033 98.0884 145.143C98.747 145.253 98.8123 145.143 98.8123 145.143L98.3311 143.42Z" fill="black"/>
<path opacity="0.1" d="M98.5738 137.516C98.3482 138.503 98.0392 139.466 97.6502 140.394C97.5045 139.921 97.3841 139.439 97.2897 138.951C97.672 138.429 98.1021 137.949 98.5738 137.516Z" fill="black"/>
<path opacity="0.1" d="M101.325 118.628C101.235 118.835 101.117 119.026 100.975 119.197C100.739 119.423 100.529 119.678 100.349 119.957C100.155 120.347 100.191 120.816 100.124 121.254C100.057 121.688 99.7967 122.172 99.3808 122.186C99.1673 122.165 98.96 122.099 98.7707 121.993C98.6765 121.94 98.5709 121.914 98.4644 121.918C98.3579 121.921 98.2542 121.954 98.1633 122.013C98.0425 122.142 97.973 122.316 97.9692 122.497C97.917 122.876 97.8966 123.259 97.9082 123.641C97.911 123.794 97.9193 123.943 97.9331 124.096C97.9775 124.586 98.069 125.114 97.8499 125.551C97.6513 125.888 97.35 126.144 96.9958 126.275C96.6119 126.446 96.2094 126.565 95.7977 126.63C95.7977 126.63 95.795 126.627 95.795 126.63C95.0113 126.733 94.2205 126.76 93.4321 126.713C93.3605 126.714 93.2891 126.702 93.2214 126.677C93.1878 126.662 93.1568 126.642 93.1299 126.616C93.2141 126.157 93.2615 125.692 93.2713 125.225C92.737 124.684 92.3194 124.026 92.047 123.298C91.7745 122.57 91.6537 121.789 91.6926 121.007C91.7316 120.225 91.9294 119.461 92.2727 118.768C92.616 118.074 93.0966 117.467 93.6818 116.988C94.267 116.508 94.943 116.168 95.6638 115.99C96.3846 115.812 97.1332 115.8 97.8586 115.956C98.584 116.112 99.2691 116.431 99.8673 116.892C100.465 117.353 100.963 117.945 101.325 118.628V118.628Z" fill="black"/>
<path d="M99.1703 114.003C98.6977 113.952 98.2522 114.219 97.7882 114.328C96.8288 114.552 95.8474 114.09 94.8649 114.093C94.019 114.143 93.196 114.403 92.4626 114.852C91.8679 115.148 91.3254 115.55 90.8584 116.039C90.3896 116.536 90.117 117.202 90.0961 117.903C90.0994 118.307 90.2079 118.73 90.0616 119.103C89.9608 119.302 89.8437 119.491 89.7117 119.668C89.5889 119.875 89.5106 120.107 89.4823 120.349C89.454 120.591 89.4764 120.836 89.548 121.068C89.699 121.545 90.0455 121.918 90.3371 122.316C90.969 123.179 91.3666 124.206 91.934 125.117C92.181 125.514 92.4596 125.888 92.7667 126.235C92.8155 126.297 92.8761 126.348 92.9446 126.385C93.0121 126.41 93.0835 126.422 93.155 126.419C94.3603 126.455 95.6098 126.483 96.7185 125.982C97.0728 125.85 97.3742 125.595 97.573 125.258C97.7905 124.82 97.7012 124.293 97.6567 123.801C97.6086 123.269 97.62 122.732 97.6908 122.203C97.6966 122.022 97.7659 121.849 97.8853 121.72C97.9767 121.661 98.0808 121.629 98.1875 121.625C98.2942 121.622 98.4 121.648 98.4946 121.7C98.6829 121.807 98.8896 121.872 99.1024 121.892C99.52 121.877 99.781 121.396 99.8476 120.959C99.9143 120.523 99.8768 120.054 100.072 119.664C100.252 119.385 100.462 119.13 100.699 118.905C100.984 118.521 101.18 118.071 101.271 117.592C101.361 117.113 101.344 116.619 101.22 116.148C100.963 115.24 100.124 114.107 99.1703 114.003Z" fill="#1E1637"/>
<path d="M123.325 129.193C125.795 129.193 127.797 127.075 127.797 124.463C127.797 121.85 125.795 119.733 123.325 119.733C120.855 119.733 118.853 121.85 118.853 124.463C118.853 127.075 120.855 129.193 123.325 129.193Z" fill="#FFD2C6"/>
<path d="M121.141 126.437C121.141 126.437 121.453 130.916 120.586 131.943C119.72 132.97 117.466 134.913 117.466 134.913L118.16 137.956L122.077 138.433L126.653 133.263L125.613 131.906C125.613 131.906 124.816 129.046 125.474 127.616C126.133 126.186 121.141 126.437 121.141 126.437Z" fill="#FFD2C6"/>
<path opacity="0.1" d="M130.605 136.278V136.281L130.364 136.674L128.977 136.27L128.006 132.427L128.065 131.312L128.35 130.878C128.35 130.878 129.875 130.916 129.809 132.383C129.745 133.674 130.438 135.789 130.605 136.278Z" fill="black"/>
<path opacity="0.1" d="M133.619 157.502C133.619 157.502 132.516 157.763 131.254 157.936C129.972 158.112 128.53 158.2 127.934 157.83C126.93 157.202 121.492 157.381 119.931 157.446C119.82 157.449 119.731 157.455 119.662 157.458L120.066 155.888H130.846L130.979 156.563L132.51 156.657L133.386 156.862C133.531 157.244 133.619 157.502 133.619 157.502Z" fill="black"/>
<path d="M128.074 131.173C128.074 131.173 129.6 131.209 129.53 132.676C129.461 134.143 130.362 136.673 130.362 136.673L130.015 137.516C130.015 137.516 129.53 139.57 129.912 140.083C130.293 140.596 131.679 140.596 130.882 144.813C130.882 144.813 130.71 147.967 131.125 148.993C131.541 150.02 131.541 152.477 132.165 153.503C132.789 154.53 133.621 156.913 133.621 156.913C133.621 156.913 129.114 157.977 127.936 157.243C126.757 156.51 119.512 156.877 119.512 156.877C119.512 156.877 119.546 155.593 119.512 155.447C119.48 155.287 119.479 155.121 119.508 154.961C119.538 154.8 119.598 154.647 119.685 154.512C119.928 154.163 120.309 153.577 120.101 153.063C119.893 152.55 120.621 151.795 120.24 150.999C119.858 150.203 119.393 150.046 119.487 149.611C119.581 149.177 119.338 148.591 119.061 148.224C118.784 147.857 116.912 143.981 116.912 143.981L116.6 142.173C116.6 142.173 114.187 140.303 114.232 139.423C114.277 138.543 115.144 137.324 115.144 137.324L117.467 134.913C117.467 134.913 118.749 136.38 119.997 135.866C121.245 135.353 123.926 132.896 123.926 132.896C123.926 132.896 124.885 132.346 124.954 131.943C125.024 131.539 125.613 131.906 125.613 131.906C125.613 131.906 126.48 131.403 126.653 131.581C126.826 131.759 127.589 131.906 127.589 131.906L128.074 131.173Z" fill="#FFCDE5"/>
<path d="M114.971 138.812L114.232 139.423C114.232 139.423 113.48 140.853 113.307 143.42C113.133 145.987 112.371 149.611 112.371 149.611L110.915 152.367C110.915 152.367 108.523 157.68 108.211 159.093C107.899 160.507 106.477 162.89 106.477 162.89C106.477 162.89 101.659 167.47 105.022 168.297C108.384 169.124 108.488 164.65 108.488 164.65C108.488 164.65 109.272 163.734 109.4 163.11C109.528 162.487 113.792 154.512 113.792 154.512C113.792 154.512 115.283 152.367 114.971 151.23C114.971 151.23 116.912 146.403 116.912 145.192C116.876 144.179 116.772 143.17 116.6 142.173L116.912 139.643L114.971 138.812Z" fill="#FFD2C6"/>
<path opacity="0.1" d="M124.954 148.92C124.954 148.92 121.557 150.801 120.898 150.9C120.24 150.999 123.776 150.497 123.776 150.497L124.954 148.92Z" fill="black"/>
<path opacity="0.1" d="M127.728 150.387C127.728 150.387 123.221 152 121.245 151.707C121.245 151.707 126.168 152.697 127.728 150.387Z" fill="black"/>
<path opacity="0.1" d="M128.005 150.913C128.005 150.913 123.948 153.613 121.557 153.173C121.557 153.173 127.138 154.347 128.005 153.723L125.509 152.99C125.509 152.99 128.282 151.439 128.005 150.913Z" fill="black"/>
<path opacity="0.1" d="M123.331 116.14C122.16 115.89 120.858 116.042 119.919 116.824C119.225 117.401 118.763 118.285 117.979 118.717C117.566 118.9 117.143 119.058 116.712 119.188C115.953 119.516 115.319 120.106 114.914 120.861C114.509 121.616 114.356 122.493 114.48 123.351C114.602 124.077 114.924 124.749 115.082 125.467C115.365 126.746 115.116 128.086 114.809 129.359C113.956 132.895 112.661 136.294 110.957 139.467C110.822 139.663 110.755 139.903 110.767 140.146C110.807 140.31 110.889 140.459 111.003 140.579C112.605 142.538 115.212 143.21 117.659 143.299C118.561 143.331 119.504 143.289 120.298 142.836C120.808 142.525 121.248 142.098 121.584 141.586C122.433 140.353 122.855 138.849 122.777 137.326C122.711 136.098 122.32 134.852 122.614 133.662C122.645 133.496 122.717 133.341 122.822 133.213C123.086 132.928 123.524 133.003 123.898 132.957C124.916 132.832 125.572 131.697 125.693 130.621C125.814 129.545 125.561 128.463 125.554 127.379C125.55 125.948 125.973 124.551 126.763 123.389C127.102 122.895 127.534 122.412 127.648 121.793C127.791 121.02 127.368 120.453 127.002 119.84C126.434 118.89 126.156 117.779 125.29 117.054C124.714 116.591 124.043 116.278 123.331 116.14Z" fill="black"/>
<path d="M123.054 115.847C121.883 115.597 120.581 115.749 119.642 116.53C118.947 117.108 118.486 117.992 117.702 118.424C117.289 118.607 116.866 118.764 116.435 118.895C115.675 119.223 115.042 119.812 114.637 120.567C114.232 121.323 114.079 122.2 114.202 123.058C114.325 123.784 114.646 124.456 114.805 125.174C115.088 126.453 114.839 127.793 114.532 129.066C113.679 132.602 112.384 136.001 110.68 139.174C110.545 139.37 110.477 139.61 110.49 139.852C110.53 140.016 110.612 140.166 110.725 140.286C112.328 142.244 114.935 142.917 117.382 143.005C118.284 143.038 119.226 142.996 120.02 142.542C120.531 142.231 120.97 141.805 121.307 141.293C122.156 140.06 122.577 138.556 122.5 137.033C122.433 135.804 122.043 134.559 122.337 133.369C122.368 133.202 122.44 133.048 122.545 132.92C122.808 132.635 123.246 132.71 123.621 132.664C124.638 132.539 125.295 131.403 125.416 130.328C125.536 129.252 125.283 128.17 125.277 127.086C125.272 125.655 125.695 124.258 126.486 123.096C126.824 122.602 127.257 122.118 127.371 121.499C127.514 120.727 127.091 120.159 126.725 119.547C126.157 118.597 125.878 117.486 125.013 116.76C124.436 116.298 123.765 115.985 123.054 115.847Z" fill="#985C7E"/>
<path opacity="0.1" d="M104.121 137.196C103.935 137.977 104.121 139.2 104.121 139.2C104.074 139.737 104.121 142.72 104.121 142.72C102.596 142.23 98.7133 143.21 98.7133 143.21L98.2502 141.743C97.988 141.383 97.7923 140.974 97.6733 140.538C97.5275 140.064 97.4072 139.582 97.3128 139.094C97.1112 138.08 96.9594 137.054 96.858 136.023C96.6667 134.468 98.852 132.796 100.505 131.866C102.158 130.937 103.611 134.897 103.611 134.897C103.611 134.897 104.304 136.413 104.121 137.196Z" fill="black"/>
<path d="M104.121 136.903C103.935 137.683 104.121 138.907 104.121 138.907C104.074 139.443 104.121 142.427 104.121 142.427C102.596 141.937 98.7133 142.917 98.7133 142.917L98.2502 141.45C97.988 141.09 97.7923 140.681 97.6733 140.244C97.5275 139.771 97.4072 139.289 97.3128 138.801C97.1112 137.786 96.9594 136.761 96.858 135.73C96.6667 134.175 98.852 132.503 100.505 131.573C102.158 130.643 103.611 134.603 103.611 134.603C103.611 134.603 104.304 136.12 104.121 136.903Z" fill="#4C4981"/>
<path opacity="0.1" d="M121.557 161.693C121.557 161.693 122.447 166.093 123.926 167.29L121.557 161.693Z" fill="black"/>
<path opacity="0.2" d="M101.187 116.148C101.105 115.872 100.99 115.608 100.845 115.363C100.869 115.43 100.891 115.496 100.91 115.561C101.034 116.032 101.051 116.527 100.96 117.006C100.87 117.484 100.674 117.934 100.389 118.318C100.152 118.544 99.9416 118.798 99.7624 119.077C99.5667 119.468 99.6042 119.936 99.5376 120.373C99.471 120.809 99.2099 121.29 98.7923 121.306C98.5796 121.286 98.3729 121.22 98.1846 121.113C98.09 121.061 97.9842 121.035 97.8775 121.039C97.7707 121.042 97.6666 121.075 97.5752 121.133C97.4559 121.263 97.3866 121.435 97.3808 121.616C97.31 122.146 97.2986 122.682 97.3466 123.215C97.3912 123.707 97.4805 124.234 97.263 124.671C97.0641 125.008 96.7628 125.263 96.4085 125.395C95.2997 125.896 94.0503 125.869 92.845 125.833C92.7734 125.835 92.7021 125.824 92.6346 125.799C92.5661 125.762 92.5055 125.711 92.4567 125.648C92.1496 125.301 91.871 124.927 91.6239 124.53C91.0566 123.619 90.6589 122.592 90.027 121.73C89.854 121.493 89.6624 121.266 89.503 121.02C89.5074 121.036 89.5103 121.052 89.5152 121.068C89.6663 121.545 90.0128 121.918 90.3044 122.316C90.9362 123.179 91.3339 124.206 91.9012 125.117C92.1483 125.514 92.4269 125.888 92.734 126.235C92.7828 126.297 92.8434 126.349 92.9119 126.385C92.9794 126.41 93.0508 126.422 93.1223 126.42C94.3276 126.456 95.577 126.483 96.6858 125.982C97.0401 125.85 97.3414 125.595 97.5403 125.258C97.7578 124.821 97.6685 124.293 97.624 123.801C97.5759 123.269 97.5873 122.732 97.6581 122.203C97.6639 122.022 97.7332 121.85 97.8525 121.72C97.944 121.661 98.0481 121.629 98.1548 121.625C98.2615 121.622 98.3673 121.648 98.4619 121.7C98.6502 121.807 98.8569 121.872 99.0697 121.892C99.4872 121.877 99.7483 121.396 99.8149 120.959C99.8815 120.523 99.8441 120.054 100.04 119.664C100.219 119.385 100.429 119.13 100.666 118.905C100.952 118.521 101.147 118.071 101.238 117.592C101.328 117.113 101.311 116.619 101.187 116.148Z" fill="black"/>
<g opacity="0.1">
<path opacity="0.1" d="M114.466 124.044C114.419 123.871 114.365 123.7 114.309 123.531C114.356 123.703 114.41 123.874 114.466 124.044Z" fill="black"/>
<path opacity="0.1" d="M127.113 120.203C127.124 120.342 127.118 120.482 127.094 120.619C126.979 121.238 126.547 121.722 126.209 122.216C125.418 123.378 124.995 124.775 125 126.206C125.006 127.289 125.259 128.372 125.138 129.448C125.018 130.523 124.361 131.659 123.343 131.784C122.969 131.83 122.531 131.755 122.267 132.04C122.162 132.168 122.091 132.322 122.059 132.488C121.766 133.679 122.156 134.924 122.222 136.153C122.3 137.676 121.879 139.18 121.029 140.413C120.693 140.924 120.254 141.351 119.743 141.662C118.949 142.116 118.006 142.158 117.104 142.125C114.697 142.038 112.138 141.383 110.529 139.498C110.486 139.61 110.473 139.733 110.49 139.852C110.53 140.016 110.612 140.166 110.725 140.286C112.328 142.244 114.935 142.917 117.382 143.005C118.284 143.038 119.226 142.996 120.02 142.542C120.531 142.231 120.97 141.805 121.307 141.293C122.156 140.06 122.577 138.556 122.5 137.033C122.433 135.804 122.043 134.559 122.337 133.368C122.368 133.202 122.44 133.048 122.545 132.92C122.808 132.635 123.246 132.71 123.621 132.664C124.638 132.539 125.295 131.403 125.416 130.328C125.536 129.252 125.283 128.17 125.277 127.086C125.272 125.655 125.695 124.258 126.486 123.096C126.824 122.602 127.257 122.118 127.371 121.499C127.441 121.048 127.349 120.586 127.113 120.203Z" fill="black"/>
</g>
<path d="M34.1638 199.237C34.1638 199.237 24.5102 204.512 29.4975 210.728C29.4975 210.728 29.9666 212.086 31.3245 211.981C31.3245 211.981 31.0529 211.459 32.0899 211.041C32.4576 210.89 32.8072 210.693 33.1314 210.455C33.5701 210.134 33.8979 209.67 34.065 209.135C34.065 209.135 36.0402 206.34 34.5095 201.169C34.5095 201.169 34.707 199.707 34.5341 199.472L33.3614 201.173C33.3614 201.173 34.5743 202.035 34.7131 203.298C34.7131 203.298 33.4499 201.176 33.1762 201.418C33.1207 201.467 32.5929 202.348 32.5929 202.348C32.5929 202.348 34.6946 203.856 34.852 205.815C34.852 205.815 33.6669 203.073 32.3892 202.681L31.6671 204.062C31.6671 204.062 33.9632 205.541 34.2224 207.764C34.2224 207.764 32.8892 204.943 31.5282 204.375L30.9912 205.834C30.9912 205.834 33.204 207.323 33.4077 209.174C33.4077 209.174 31.556 206.079 30.8894 206.177C30.8894 206.177 30.4727 207.548 30.5283 207.969C30.5283 207.969 32.093 209.076 32.1207 210.163C32.1207 210.163 30.6764 208.234 30.4542 208.361C30.4542 208.361 30.3616 210.3 30.806 211.309C30.806 211.309 30.0468 209.869 30.1672 208.361C29.7196 208.78 29.3978 209.328 29.2413 209.938C29.2413 209.938 28.8247 208.87 30.195 207.891C30.195 207.891 30.3246 206.383 30.482 206.197C30.482 206.197 29.0006 206.961 28.371 207.901C28.371 207.901 28.6025 206.5 30.6116 205.805L31.1208 204.326C31.1208 204.326 29.1117 205.227 28.4914 206.02C28.4914 206.02 28.9368 204.63 31.2782 203.964L31.9726 202.603C31.9726 202.603 30.1857 203.239 29.3154 203.964C29.3154 203.964 29.9913 202.769 32.1855 202.221L32.7503 201.369C32.7503 201.369 31.4541 201.858 31.093 202.035C30.732 202.211 30.6579 202.123 30.6579 202.123C31.3198 201.53 32.1243 201.143 32.9818 201.006C32.9818 201.006 34.2533 199.328 34.1638 199.237Z" fill="#FF8863"/>
<path d="M197.401 192.137C197.401 192.137 187.747 197.412 192.734 203.628C192.734 203.628 193.204 204.986 194.561 204.881C194.561 204.881 194.29 204.359 195.327 203.941C195.695 203.79 196.044 203.593 196.368 203.355C196.807 203.034 197.135 202.571 197.302 202.035C197.302 202.035 199.277 199.24 197.746 194.07C197.746 194.07 197.944 192.607 197.771 192.372L196.598 194.073C196.598 194.073 197.811 194.935 197.95 196.198C197.95 196.198 196.687 194.077 196.413 194.318C196.358 194.367 195.83 195.248 195.83 195.248C195.83 195.248 197.932 196.756 198.089 198.715C198.089 198.715 196.904 195.973 195.626 195.581L194.904 196.962C194.904 196.962 197.2 198.441 197.459 200.664C197.459 200.664 196.126 197.843 194.765 197.275L194.228 198.734C194.228 198.734 196.441 200.223 196.645 202.074C196.645 202.074 194.793 198.979 194.126 199.077C194.126 199.077 193.71 200.448 193.765 200.869C193.765 200.869 195.33 201.976 195.358 203.063C195.358 203.063 193.913 201.134 193.691 201.261C193.691 201.261 193.599 203.2 194.043 204.209C194.043 204.209 193.284 202.769 193.404 201.261C192.957 201.68 192.635 202.228 192.478 202.838C192.478 202.838 192.062 201.77 193.432 200.791C193.432 200.791 193.562 199.283 193.719 199.097C193.719 199.097 192.238 199.861 191.608 200.801C191.608 200.801 191.839 199.4 193.849 198.705L194.358 197.226C194.358 197.226 192.349 198.127 191.728 198.921C191.728 198.921 192.174 197.53 194.515 196.864L195.21 195.503C195.21 195.503 193.423 196.139 192.552 196.864C192.552 196.864 193.228 195.669 195.422 195.121L195.987 194.269C195.987 194.269 194.691 194.758 194.33 194.935C193.969 195.111 193.895 195.023 193.895 195.023C194.557 194.43 195.361 194.044 196.219 193.906C196.219 193.906 197.49 192.228 197.401 192.137Z" fill="#FF8863"/>
<path d="M238.409 196.747C238.409 196.747 228.755 202.022 233.743 208.237C233.743 208.237 234.212 209.595 235.57 209.491C235.57 209.491 235.298 208.969 236.335 208.551C236.703 208.399 237.052 208.203 237.376 207.965C237.815 207.644 238.143 207.18 238.31 206.644C238.31 206.644 240.285 203.85 238.755 198.679C238.755 198.679 238.952 197.217 238.779 196.982L237.606 198.682C237.606 198.682 238.819 199.544 238.958 200.808C238.958 200.808 237.695 198.686 237.421 198.927C237.366 198.976 236.838 199.858 236.838 199.858C236.838 199.858 238.94 201.366 239.097 203.324C239.097 203.324 237.912 200.582 236.634 200.191L235.912 201.571C235.912 201.571 238.208 203.05 238.468 205.273C238.468 205.273 237.134 202.453 235.773 201.885L235.236 203.344C235.236 203.344 237.449 204.833 237.653 206.683C237.653 206.683 235.801 203.589 235.134 203.687C235.134 203.687 234.718 205.058 234.773 205.479C234.773 205.479 236.338 206.586 236.366 207.673C236.366 207.673 234.921 205.743 234.699 205.871C234.699 205.871 234.607 207.81 235.051 208.818C235.051 208.818 234.292 207.379 234.412 205.871C233.965 206.289 233.643 206.837 233.486 207.447C233.486 207.447 233.07 206.38 234.44 205.401C234.44 205.401 234.57 203.892 234.727 203.706C234.727 203.706 233.246 204.47 232.616 205.41C232.616 205.41 232.848 204.01 234.857 203.315L235.366 201.836C235.366 201.836 233.357 202.737 232.736 203.53C232.736 203.53 233.182 202.14 235.523 201.473L236.218 200.112C236.218 200.112 234.431 200.749 233.56 201.473C233.56 201.473 234.236 200.279 236.431 199.73L236.995 198.878C236.995 198.878 235.699 199.368 235.338 199.544C234.977 199.72 234.903 199.632 234.903 199.632C235.565 199.04 236.369 198.653 237.227 198.516C237.227 198.516 238.498 196.838 238.409 196.747Z" fill="#FF8863"/>
<path d="M168.153 139.449L167.624 138.768C168.665 137.863 168.714 132.274 168.193 129.243C167.832 127.14 167.777 125.337 168.025 123.73C168.421 121.172 169.579 119.278 171.469 118.1C175.39 115.658 177.741 108.957 177.764 108.89L178.547 109.192C178.448 109.48 176.072 116.256 171.892 118.86C169.114 120.591 168.145 124.031 169.013 129.085C169.423 131.467 169.767 138.047 168.153 139.449Z" fill="#D4D5E0"/>
<path d="M189.917 105.591C192.472 98.9575 190.277 91.741 185.015 89.4726C179.752 87.2043 173.414 90.7431 170.858 97.3767C168.377 103.818 170.374 110.807 175.31 113.285C174.978 113.927 174.478 114.455 173.87 114.804C172.801 115.332 176.274 115.841 176.274 115.841C176.279 115.148 176.39 114.461 176.602 113.805C181.682 115.38 187.496 111.875 189.917 105.591Z" fill="#FF8863"/>
<path opacity="0.2" d="M171.873 103.535C171.99 100.671 173.625 98.3979 175.581 98.2966C175.496 98.2844 175.411 98.2759 175.325 98.2719C173.258 98.1771 171.483 100.523 171.36 103.511C171.241 106.413 172.724 108.853 174.702 109.08C174.667 109.297 171.754 106.432 171.873 103.535Z" fill="white"/>
<path d="M199.99 184.351L199.461 183.669C200.503 182.765 200.552 177.176 200.031 174.145C199.67 172.042 199.615 170.239 199.863 168.632C200.258 166.074 201.417 164.18 203.307 163.002C207.228 160.56 209.579 153.859 209.602 153.792L210.385 154.094C210.286 154.381 207.91 161.158 203.73 163.762C200.951 165.493 199.983 168.933 200.851 173.987C201.261 176.369 201.605 182.948 199.99 184.351Z" fill="#D4D5E0"/>
<path d="M221.755 150.493C224.31 143.859 222.115 136.643 216.852 134.375C211.59 132.106 205.252 135.645 202.696 142.279C200.215 148.719 202.212 155.709 207.147 158.187C206.816 158.829 206.316 159.357 205.707 159.706C204.639 160.234 208.112 160.742 208.112 160.742C208.117 160.05 208.228 159.363 208.44 158.707C213.52 160.282 219.334 156.776 221.755 150.493Z" fill="#FF8863"/>
<path opacity="0.2" d="M203.711 148.437C203.828 145.573 205.463 143.3 207.419 143.199C207.334 143.186 207.249 143.178 207.163 143.174C205.095 143.079 203.32 145.425 203.198 148.413C203.079 151.315 204.562 153.755 206.54 153.982C206.505 154.199 203.592 151.334 203.711 148.437Z" fill="white"/>
<path d="M151.328 97.5587L150.799 96.8773C151.84 95.9731 151.889 90.3837 151.369 87.3526C151.007 85.2497 150.952 83.4465 151.2 81.8398C151.596 79.2817 152.754 77.3876 154.644 76.2102C158.565 73.7676 160.916 67.0671 160.939 66.9998L161.722 67.3021C161.623 67.5893 159.247 74.3658 155.067 76.9699C152.289 78.7009 151.32 82.1411 152.189 87.195C152.598 89.5765 152.943 96.1563 151.328 97.5587Z" fill="#D4D5E0"/>
<path d="M173.092 63.7009C175.648 57.0673 173.453 49.8507 168.19 47.5824C162.927 45.314 156.589 48.8528 154.033 55.4865C151.552 61.9274 153.549 68.9173 158.485 71.3944C158.153 72.037 157.653 72.5646 157.045 72.9139C155.976 73.4418 159.45 73.9503 159.45 73.9503C159.455 73.2577 159.565 72.5705 159.778 71.9152C164.857 73.4901 170.671 69.9843 173.092 63.7009Z" fill="#FF8863"/>
<path opacity="0.2" d="M155.048 61.6448C155.166 58.781 156.801 56.5078 158.756 56.4065C158.672 56.3943 158.586 56.3858 158.5 56.3818C156.433 56.287 154.658 58.6327 154.535 61.6212C154.416 64.5229 155.899 66.9633 157.877 67.1896C157.842 67.4067 154.929 64.5416 155.048 61.6448Z" fill="white"/>
</g>
<defs>
<clipPath id="clip0">
<rect width="279" height="224" fill="white"/>
</clipPath>
</defs>
</svg>
